<svg xmlns="http://www.w3.org/2000/svg" width="16.422" height="21.42" viewBox="0 0 16.422 21.42">
  <path id="user" d="M21.642,15.311l-3.41-1.705a.939.939,0,0,1-.522-.844V11.555c.082-.1.168-.214.257-.34a8.17,8.17,0,0,0,1.055-2.07,1.417,1.417,0,0,0,.831-1.291V6.426a1.424,1.424,0,0,0-.357-.937V3.59a3.2,3.2,0,0,0-.747-2.329A4.493,4.493,0,0,0,15.211,0a4.5,4.5,0,0,0-3.537,1.26,3.2,3.2,0,0,0-.747,2.33v1.9a1.424,1.424,0,0,0-.357.937V7.854a1.42,1.42,0,0,0,.534,1.11,7.493,7.493,0,0,0,1.251,2.584v1.181a.943.943,0,0,1-.492.828L8.679,15.294A3.219,3.219,0,0,0,7,18.122v1.156c0,1.694,5.371,2.142,8.211,2.142s8.211-.448,8.211-2.142V18.192A3.2,3.2,0,0,0,21.642,15.311Zm1.066,3.967c0,.484-2.646,1.428-7.5,1.428s-7.5-.944-7.5-1.428V18.122a2.5,2.5,0,0,1,1.306-2.2l3.185-1.737a1.658,1.658,0,0,0,.864-1.455V11.294l-.083-.1a6.74,6.74,0,0,1-1.217-2.522l-.032-.141-.122-.079a.712.712,0,0,1-.33-.6V6.426a.7.7,0,0,1,.239-.527l.118-.106V3.57l0-.047a2.479,2.479,0,0,1,.573-1.793,3.835,3.835,0,0,1,3-1.017A3.844,3.844,0,0,1,18.2,1.724a2.513,2.513,0,0,1,.579,1.8l0,2.27L18.9,5.9a.7.7,0,0,1,.239.526V7.854a.71.71,0,0,1-.508.678l-.178.055-.057.177a7.473,7.473,0,0,1-1.012,2.04,4.7,4.7,0,0,1-.3.385l-.089.1v1.473a1.649,1.649,0,0,0,.916,1.483l3.41,1.705a2.493,2.493,0,0,1,1.386,2.242Z" transform="translate(-7)" fill="#fff"/>
</svg>
