<svg xmlns="http://www.w3.org/2000/svg" xmlns:xlink="http://www.w3.org/1999/xlink" width="480.657" height="309.336" viewBox="0 0 480.657 309.336"><defs><linearGradient id="a" x1="0.5" y1="1" x2="0.5" gradientUnits="objectBoundingBox"><stop offset="0" stop-color="gray" stop-opacity="0.251"/><stop offset="0.54" stop-color="gray" stop-opacity="0.122"/><stop offset="1" stop-color="gray" stop-opacity="0.102"/></linearGradient><linearGradient id="b" x1="7.194" y1="-9.858" x2="7.194" y2="-10.955" xlink:href="#a"/><linearGradient id="c" x1="47.005" y1="-76.977" x2="47.005" y2="-77.977" xlink:href="#a"/><linearGradient id="d" x1="45.78" y1="-75.851" x2="45.78" y2="-76.851" xlink:href="#a"/><linearGradient id="e" x1="45.657" y1="-78.237" x2="45.657" y2="-79.237" xlink:href="#a"/><linearGradient id="f" x1="44.401" y1="-77.207" x2="44.401" y2="-78.207" xlink:href="#a"/><linearGradient id="g" y1="1.001" y2="0" xlink:href="#a"/><linearGradient id="h" y1="1" y2="0" xlink:href="#a"/><linearGradient id="i" x1="0.501" y1="1" x2="0.501" gradientUnits="objectBoundingBox"><stop offset="0" stop-color="#fff"/><stop offset="1"/></linearGradient><linearGradient id="j" y1="1" y2="0" xlink:href="#a"/></defs><g transform="translate(0 0.007)"><g transform="translate(0 44.871)" opacity="0.5"><path d="M570.306,201.329H504.481V176.142A26.382,26.382,0,0,0,478.1,149.76H176.707a23.934,23.934,0,0,0-23.934,23.934v27.65h-9.91A27.853,27.853,0,0,0,115,229.163V354.034a27.848,27.848,0,0,0,25.767,27.749v28.245H168.9V381.868h35.43v28.4h28.136v-28.4H485.681v28.4h28.136v-28.4h23.448V410H565.43V381.868H570.5a25.154,25.154,0,0,0,25.158-25.158V226.685A25.352,25.352,0,0,0,570.3,201.329Zm-70.781,110.2v21.1H394.633a13.621,13.621,0,0,0,1.729-6.655V311.528Z" transform="translate(-115 -149.76)" fill="url(#a)"/></g><rect width="27.09" height="33.864" transform="translate(33.755 266.424)" fill="#6c63ff"/><rect width="27.09" height="33.864" transform="translate(365.879 266.677)" fill="#6c63ff"/><rect width="27.09" height="33.864" transform="translate(415.545 266.424)" fill="#6c63ff"/><rect width="27.09" height="33.864" transform="translate(94.962 266.677)" fill="#6c63ff"/><rect width="27.09" height="33.864" transform="translate(33.755 266.424)" opacity="0.3"/><rect width="27.09" height="33.864" transform="translate(365.879 266.677)" opacity="0.3"/><rect width="27.09" height="33.864" transform="translate(415.545 266.424)" opacity="0.3"/><rect width="27.09" height="33.864" transform="translate(94.962 266.677)" opacity="0.3"/><path d="M765.2,200.52h68.154a24.409,24.409,0,0,1,24.409,24.409V350.143a24.216,24.216,0,0,1-24.216,24.216H765.2Z" transform="translate(-386.026 -101.161)" fill="#6c63ff"/><path d="M765.2,200.52h68.154a24.409,24.409,0,0,1,24.409,24.409V350.143a24.216,24.216,0,0,1-24.216,24.216H765.2Z" transform="translate(-386.026 -101.161)" opacity="0.3"/><path d="M114.447,100.29H244.923V256.068H91.4V123.332a23.046,23.046,0,0,1,23.042-23.042Z" transform="translate(-46.109 -50.597)" fill="#6c63ff"/><path d="M115.19,100.29H244.923V256.068H91.4V124.075a23.785,23.785,0,0,1,23.79-23.785Z" transform="translate(-46.109 -50.597)" opacity="0.3"/><path d="M181.7,100.29H308.2V256.068H154.68V127.3a27.011,27.011,0,0,1,27.011-27.011Z" transform="translate(-78.033 -50.597)" fill="#6c63ff"/><path d="M463,100.29H592.108A25.405,25.405,0,0,1,617.514,125.7V256.068H463Z" transform="translate(-233.573 -50.597)" fill="#6c63ff"/><path d="M851.77,200.52h25.272a24.409,24.409,0,0,1,24.395,24.409V350.143a24.216,24.216,0,0,1-24.216,24.216H851.77Z" transform="translate(-429.699 -101.161)" fill="#6c63ff"/><rect width="311.555" height="47.412" transform="translate(110.511 225.786)" fill="#6c63ff"/><rect width="91.999" height="96.84" rx="45.999" transform="translate(120.917 123.304) rotate(-16.25)" fill="url(#b)"/><rect width="85.79" height="90.304" rx="42.895" transform="translate(123.171 126.722) rotate(-16.25)" fill="#f55f44"/><rect width="85.79" height="90.304" rx="42.895" transform="translate(123.171 126.722) rotate(-16.25)" opacity="0.1"/><rect width="85.79" height="90.304" rx="42.895" transform="translate(124.809 125.571) rotate(-16.25)" fill="#f55f44"/><circle cx="6.774" cy="6.774" r="6.774" transform="matrix(0.818, -0.575, 0.575, 0.818, 161.739, 132.905)" fill="url(#c)"/><circle cx="6.774" cy="6.774" r="6.774" transform="matrix(0.818, -0.575, 0.575, 0.818, 194.147, 151.511)" fill="url(#d)"/><circle cx="6.774" cy="6.774" r="6.774" transform="matrix(0.818, -0.575, 0.575, 0.818, 143.879, 170.3)" fill="url(#e)"/><circle cx="6.774" cy="6.774" r="6.774" transform="matrix(0.818, -0.575, 0.575, 0.818, 174.437, 190.208)" fill="url(#f)"/><circle cx="4.514" cy="4.514" r="4.514" transform="matrix(0.818, -0.575, 0.575, 0.818, 164.887, 133.454)" fill="#f99f8f"/><circle cx="4.514" cy="4.514" r="4.514" transform="matrix(0.818, -0.575, 0.575, 0.818, 197.295, 152.06)" fill="#f99f8f"/><circle cx="4.514" cy="4.514" r="4.514" transform="matrix(0.818, -0.575, 0.575, 0.818, 147.027, 170.848)" fill="#f99f8f"/><circle cx="4.514" cy="4.514" r="4.514" transform="matrix(0.818, -0.575, 0.575, 0.818, 177.585, 190.757)" fill="#f99f8f"/><path d="M44.823,200.52h99.6V374.359h-99.6A26.823,26.823,0,0,1,18,347.542v-120.2A26.823,26.823,0,0,1,44.823,200.52Z" transform="translate(-9.081 -101.161)" fill="#6c63ff"/><path d="M45.011,200.52h74.423a24.994,24.994,0,0,1,24.994,25.014V349.365a24.994,24.994,0,0,1-24.994,24.994H45.011A27.011,27.011,0,0,1,18,347.348V227.516a27.011,27.011,0,0,1,27.011-27Z" transform="translate(-9.081 -101.161)" opacity="0.3"/><path d="M173.41,200.52h43.5a8.424,8.424,0,0,1,8.424,8.424V365.935a8.424,8.424,0,0,1-8.424,8.424h-43.5Z" transform="translate(-87.481 -101.161)" opacity="0.1"/><path d="M168.35,200.52h43.5a8.424,8.424,0,0,1,8.424,8.424V365.935a8.424,8.424,0,0,1-8.424,8.424h-43.5Z" transform="translate(-84.929 -101.161)" fill="#6c63ff"/><rect width="155.778" height="42.897" transform="translate(124.059 189.668)" fill="#6c63ff"/><rect width="155.778" height="42.897" transform="translate(280.089 189.916)" fill="#6c63ff"/><rect width="155.778" height="42.897" rx="21.449" transform="translate(124.059 189.668)" fill="#fff" opacity="0.15"/><circle cx="9.028" cy="9.028" r="9.028" transform="translate(288.994 92.714)" fill="#6c63ff"/><circle cx="9.028" cy="9.028" r="9.028" transform="translate(288.994 92.714)" opacity="0.3"/><circle cx="9.028" cy="9.028" r="9.028" transform="translate(149.024 92.714)" fill="#6c63ff"/><circle cx="9.028" cy="9.028" r="9.028" transform="translate(149.024 92.714)" opacity="0.3"/><ellipse cx="2.26" cy="3.384" rx="2.26" ry="3.384" transform="translate(151.273 47.309)" fill="#fda57d"/><rect width="155.778" height="42.897" rx="21.449" transform="translate(280.089 189.916)" fill="#fff" opacity="0.15"/><g transform="translate(297.888 70.872)" opacity="0.5"><path d="M751.481,234.43c-1.036-5.694-2.1-11.452-4.46-16.749a36.782,36.782,0,0,0-11.769-14.648,3.964,3.964,0,0,0-2.656-.793h0a2.255,2.255,0,0,0-2.175,1.982c-.03.114-.055.223-.074.337a17.4,17.4,0,0,0,.654,8.558,97.64,97.64,0,0,0,4.3,10.337,68.956,68.956,0,0,1,5.218,19.127,26.256,26.256,0,0,1,.213,2.666,15.526,15.526,0,0,1-.04,1.6,9.541,9.541,0,0,1-.7,3.038q-.1.238-.223.5a2.947,2.947,0,0,1-.258.456,13.754,13.754,0,0,1-3.687,3.593,17.34,17.34,0,0,1-4.584,2.725h.055a6.615,6.615,0,0,1-2.388.391c-2.542-.079-5.253-2.126-7.809-1.645h0l-.287.064c-2.616.709-4.623,4.821-4.643,7.433h0v.6a.6.6,0,0,0,.025.208c.025.069.03.263.05.387a1.674,1.674,0,0,0,.05.228c.02.074.045.223.074.332s.045.154.069.228.064.2.1.3.059.149.089.218.079.188.124.277l.109.208c.049.084.094.173.149.258l.129.2.168.238.144.183.193.218.159.168.213.2.173.154.233.188.183.144.253.173.188.129.277.164.193.109.312.154.183.089c.149.069.3.134.456.193l.223.084.357.129.258.079.292.089.287.074.277.069.307.064.268.055.322.055.258.04.332.045.248.03.347.03h2.527l.436-.035h.084a14.3,14.3,0,0,0,3.622-.8c3.7-1.4,6.843-3.964,9.752-6.655,5.768-5.327,11.219-11.937,11.68-19.776A35.593,35.593,0,0,0,751.481,234.43Z" transform="translate(-716.16 -202.232)" fill="url(#g)"/></g><rect width="46.713" height="13.523" transform="translate(262.102 101.187)" opacity="0.1"/><rect width="46.713" height="12.294" transform="translate(262.102 101.187)" fill="#6c63ff"/><circle cx="7.373" cy="7.373" r="7.373" transform="translate(281.774 88.081)" fill="#6c63ff"/><path d="M670.369,272.344l-.089-.089a1.358,1.358,0,0,0,0-2.165l.079-.1a1.487,1.487,0,0,1,0,2.349Z" transform="translate(-395.126 -165.542)" fill="#4d8af0"/><path d="M670.369,272.344l-.089-.089a1.358,1.358,0,0,0,0-2.165l.079-.1a1.487,1.487,0,0,1,0,2.349Z" transform="translate(-395.126 -165.542)" opacity="0.1"/><path d="M669.694,272.349a1.487,1.487,0,0,1,0-2.349l.079.1a1.358,1.358,0,0,0,0,2.165Z" transform="translate(-394.541 -165.547)" fill="#4d8af0"/><path d="M555.37,210.9h0" transform="translate(-280.171 -106.398)" fill="#4d8af0"/><path d="M732.763,292.317a28.518,28.518,0,0,0,8.919-6.085c5.272-4.866,10.247-10.9,10.674-18.072a32.948,32.948,0,0,0-.788-7.8c-.946-5.2-1.913-10.465-4.058-15.3a33.612,33.612,0,0,0-10.753-13.379,3.617,3.617,0,0,0-2.433-.723c-1.487.134-1.863,1.155-2.061,2.131-1.2,5.946,2.1,11.714,4.519,17.264a63.021,63.021,0,0,1,4.767,17.477c.312,2.557.426,5.322-.922,7.522a12.641,12.641,0,0,1-3.37,3.28c-1.883,1.422-3.964,2.914-6.323,2.844s-4.995-2.1-7.433-1.442-4.227,4.405-4.242,6.808C719.23,293.347,728.234,294.031,732.763,292.317Z" transform="translate(-419.835 -145.844)" fill="#ffd180"/><g transform="translate(299.43 85.091)" opacity="0.1"><path d="M753.569,275.337a12.642,12.642,0,0,1-3.37,3.28,15.657,15.657,0,0,1-4.192,2.478c2.141-.144,4.058-1.487,5.8-2.82a12.718,12.718,0,0,0,3.37-3.28c1.343-2.2,1.234-4.955.922-7.522A63.007,63.007,0,0,0,751.329,250c-2.418-5.555-5.728-11.328-4.519-17.264a2.572,2.572,0,0,1,.991-1.794,3.237,3.237,0,0,0-.55,0c-1.487.134-1.863,1.155-2.061,2.131-1.2,5.946,2.1,11.714,4.519,17.264a63.012,63.012,0,0,1,4.767,17.477C754.8,270.372,754.917,273.137,753.569,275.337Z" transform="translate(-732.217 -230.926)"/><path d="M720.88,336.354c0-2.22,1.581-5.594,3.707-6.605a3.89,3.89,0,0,0-1.075.124c-2.393.649-4.227,4.405-4.242,6.809-.03,6.075,7.795,7.066,12.527,5.793C727.094,343.158,720.851,341.765,720.88,336.354Z" transform="translate(-719.27 -280.779)"/></g><g transform="translate(239.536 63.096)" opacity="0.5"><path d="M625.391,196.376s13.5-2.7,20.247,0c0,0,4.048-9.45,8.1-9.45s5.4,14.866,5.4,14.866l5.4,21.595s25.643,45.89,0,70.181S598.4,290.852,598.4,273.306s8.1-53.982,8.1-53.982,8.1-29.692,10.8-32.392S625.391,196.376,625.391,196.376Z" transform="translate(-598.4 -186.539)" fill="url(#h)"/></g><path d="M627.365,200.549s12.973-2.6,19.459,0c0,0,3.89-9.083,7.785-9.083s5.188,14.271,5.188,14.271l5.188,20.757s24.652,44.1,0,67.465-63.576-2.6-63.576-19.459,7.785-51.9,7.785-51.9,7.785-28.542,10.381-31.139S627.365,200.549,627.365,200.549Z" transform="translate(-360.383 -125.739)" fill="#ffd180"/><g transform="translate(242.544 65.352)" opacity="0.1"><path d="M738.758,286.8a102.62,102.62,0,0,0-9.078-24.246l.818,3.28a102.575,102.575,0,0,1,8.26,20.966Z" transform="translate(-667.636 -227.141)" fill="#fff"/><path d="M605.288,271.009c0-16.848,6.278-45.122,6.278-45.122s7.785-28.542,10.381-31.139,7.785,9.083,7.785,9.083,12.973-2.6,19.459,0c0,0,3.895-9.083,7.785-9.083,1.487,0,2.631,2.151,3.434,4.782-.793-3.85-2.141-8.062-4.252-8.062-3.89,0-7.785,9.083-7.785,9.083-6.486-2.6-19.459,0-19.459,0s-5.188-11.675-7.785-9.083-10.381,31.139-10.381,31.139-6.278,28.245-6.278,45.122C604.465,269.255,605.288,271.495,605.288,271.009Z" transform="translate(-604.47 -191.092)" fill="#fff"/></g><circle cx="2.597" cy="2.597" r="2.597" transform="translate(289.688 94.919)" fill="#58555d"/><circle cx="2.597" cy="2.597" r="2.597" transform="translate(259.847 94.919)" fill="#58555d"/><ellipse cx="3.89" cy="2.597" rx="3.89" ry="2.597" transform="translate(274.123 97.515)" fill="#58555d"/><rect width="11.962" height="1.298" transform="translate(299.928 96.859) rotate(-12.52)" fill="#ffd180"/><rect width="13.23" height="1.298" transform="translate(299.946 102.044) rotate(-11.27)" fill="#ffd180"/><rect width="1.298" height="13.974" transform="translate(240.142 91.627) rotate(-68.2)" fill="#ffd180"/><rect width="1.298" height="17.066" transform="matrix(0.152, -0.988, 0.988, 0.152, 236.411, 98.169)" fill="#ffd180"/><path d="M640.578,283.561a59.351,59.351,0,0,1-10.133-.862,56,56,0,0,1-18.295-6.576l.451-2.1a61.569,61.569,0,0,0,18.334,6.442c9.341,1.6,25.405,1.12,41.733-7.889l1.09,1.982A71.5,71.5,0,0,1,640.578,283.561Z" transform="translate(-365.801 -166.849)" opacity="0.1"/><path d="M671.906,271.61c-16.352,9.009-32.4,9.489-41.733,7.889a61.57,61.57,0,0,1-18.334-6.442l-1.2,1.913a62.569,62.569,0,0,0,19.043,6.744,59.356,59.356,0,0,0,10.138.867,71.769,71.769,0,0,0,33.2-8.984ZM640.238,282.4a.253.253,0,1,1,.253-.253.253.253,0,0,1-.253.253Z" transform="translate(-365.039 -166.359)" fill="#f55f44"/><path d="M665.3,297.917h0a2.507,2.507,0,0,0,2.507,2.507h0a2.507,2.507,0,0,0,2.507-2.507h0a2.507,2.507,0,0,0-2.507-2.507h0a2.507,2.507,0,0,0-2.507,2.507Zm2.507-1.254a.416.416,0,1,1,.416-.416.416.416,0,0,1-.416.416Z" transform="translate(-392.614 -178.366)" opacity="0.1" fill="url(#i)"/><path d="M665.81,298.17h0a2.26,2.26,0,0,0,2.26,2.26h0a2.26,2.26,0,0,0,2.26-2.26h0a2.26,2.26,0,0,0-2.26-2.26h0a2.26,2.26,0,0,0-2.26,2.26Zm2.26-1.13a.377.377,0,1,1,.377-.377A.377.377,0,0,1,668.07,297.04Z" transform="translate(-392.871 -178.618)" fill="#4d8af0"/><path d="M672.153,273.13c-34.533,20.316-54.433,1.487-54.433,1.487Z" transform="translate(-368.611 -167.126)" fill="#ffd180"/><path d="M609.827,265.017c-2.116-6-24.776,10.9-24.776,10.9l-5.238-.312-10.079-9.336,7.036-7.036-59.086-50.667a14.905,14.905,0,0,0-11.551-3.469l-49.121,6.125c-.213-2.815-1.947-6.159-4.4-9.574-5.039-8.265-15.649-17.6-19.563-20.911l-6.006-40.375,5.089-7.636a25.691,25.691,0,0,1-2.775-.932l1.075-1.615-.4-.109.5-.585h-.059l12.675-14.667a5.56,5.56,0,0,0-.416-7.705L414.363,85.558a15.643,15.643,0,0,0,1.209-6.491c.223-4.281-1.695-8.627-8.122-11.843a62.687,62.687,0,0,0-12.428-4.39,40.782,40.782,0,0,0-21.486.317c-.114-.144-.238-.287-.367-.436-8.731-9.98-20.183,4.361-20.629,4.955l-44.756,49.78a9.093,9.093,0,0,0,2.24,12.12l23.691,17.764-.074.154,1.338.991c-.991,1.982-2.374,3.32-4.182,3.523l3.627,1.814a4.172,4.172,0,0,1-1.933.728l16.61,8.3c0,8.632.892,48.15,14.925,67.55a35.872,35.872,0,0,0,5.1,6.59s1.194-.649,3.375-1.7l2.507,5.02a29.355,29.355,0,0,0,30.41,15.931l77.97-11.139-.828,2.478.446-.064L457.736,323.33l4.172,1.392-.079.149.59.253-5.258,9.91-16.546,12.725s48.358,24.177,53.447,20.361-17.839-20.361-17.839-20.361l-1.273-5.089,5.565-11.749,4.663,1.556,37.471-74.943h0l1.273-2.547L549.284,286.7l7.15-7.145.773.783.064-.064,9.91,10.029,7.18,19.6S611.932,271.018,609.827,265.017ZM413.1,119.284l-.5-.575a47.529,47.529,0,0,1-14.331,11.452v-4.167l.282-.248v-1.814a27.5,27.5,0,0,0,7.78-27.923L422.8,108.65Zm-55.87-46.99-.4-.4.4.4Zm-13.156,26.5q-.164,1.982-.134,3.989a41.439,41.439,0,0,0,.322,5.812c.847,6.734,3.261,12.239,8.231,14.866,4.331,2.279,7.18,2.156,8.994.6l.2.178a19.534,19.534,0,0,0,2.012,7.572,80.086,80.086,0,0,1-26.169-10.54s.03.337.064.941l-6.809-6.808Z" transform="translate(-211.55 -59.2)" fill="url(#j)"/><path d="M506.844,507.27,495.72,528.285l17.3,7.413,11.124-23.483Z" transform="translate(-250.079 -255.91)" fill="#fda57d"/><path d="M611.658,616.3l1.234,4.955s22.249,16.07,17.3,19.776-51.916-19.776-51.916-19.776l16.07-12.363Z" transform="translate(-348.714 -336.51)" fill="#333"/><path d="M527.575,515.712l-17.507-5.832-5.208,9.831,17.3,7.418Z" transform="translate(-254.69 -257.226)" opacity="0.1"/><path d="M677.69,412.534,694.4,429.451l12.264-14.286L687.6,397.51Z" transform="translate(-341.879 -200.538)" fill="#fda57d"/><path d="M688.986,399.17,679.08,414.2l6.333,6.407,12.849-12.849Z" transform="translate(-342.58 -201.376)" opacity="0.1"/><path d="M838.679,480.593l5.089.3s22-16.407,24.058-10.579-34.434,43.606-34.434,43.606l-6.972-19.038Z" transform="translate(-473.895 -265.97)" fill="#333"/><path d="M493.387,156.066l25.678-29.731a5.4,5.4,0,0,0-.406-7.487L462.784,76.5,456,87.084l43.3,33.334L480.92,140.576Z" transform="translate(-287.027 -67.931)" fill="#fda57d"/><path d="M516.354,184.82l-8.984,9.851,12.482,15.51,12.884-14.9a37.54,37.54,0,0,1-16.382-10.465Z" transform="translate(-312.942 -122.576)" opacity="0.1"/><path d="M347.8,166.624l-29.072-21.8a8.835,8.835,0,0,1-2.175-11.774l43.5-48.408,8.919,8.919-30.093,37.486,17.789,17.789Z" transform="translate(-215.996 -72.037)" fill="#fda57d"/><path d="M368.59,215.386l4.757,3.568,8.919-17.789L371.068,190C371.305,193.786,371.974,208.5,368.59,215.386Z" transform="translate(-242.93 -125.189)" opacity="0.1"/><path d="M523.519,356.085,496.83,436.146l26.689,8.895,44.473-88.956-35.578-8.895Z" transform="translate(-250.639 -175.153)" fill="#4d8af0"/><path d="M546.833,361.075l-1.333,4,28.022-4,10.946,13.686,6.843-13.686-35.583-8.895Z" transform="translate(-275.192 -177.67)" opacity="0.1"/><path d="M405.61,76.373s11.4-14.7,20.054-4.807-13.6,11.124-13.6,11.124Z" transform="translate(-261.606 -63.716)" fill="#fda57d"/><path d="M432.32,371.043l8.6,17.2a28.512,28.512,0,0,0,29.538,15.475l104.189-14.866,35.583,44.478,26.684-26.684-57.406-49.205a14.479,14.479,0,0,0-11.219-3.375Z" transform="translate(-275.081 -207.9)" fill="#4d8af0"/><path d="M372.891,192.283s2.344,28.889-6.551,29.88l17.789,8.919s-.991,52.382,17.789,71.162c0,0,34.592-18.78,71.162-17.789s-8.919-35.583-8.919-35.583l-6.006-40.494,4.955-7.433a37.164,37.164,0,0,1-17.3-11.124h0c-4.955,6.179-16.283,14.558-26.109,14.558h-4.252c-14.648,0-30.227-2.973-42.57-10.852Z" transform="translate(-241.795 -125.098)" opacity="0.1"/><path d="M369.556,187.288s2.364,28.889-6.556,29.875l17.789,8.919s-.991,52.382,17.789,71.162c0,0,34.592-18.78,71.162-17.789s-8.919-35.583-8.919-35.583l-6.006-40.494,4.955-7.433a37.164,37.164,0,0,1-17.3-11.124h0c-4.955,6.179-16.283,14.558-26.109,14.558h-4.252c-14.648,0-30.227-4.2-42.57-12.091Z" transform="translate(-240.11 -122.576)" fill="#3ad29f"/><path d="M423.52,173.36v9.91a18.977,18.977,0,0,0,5.558,13.417l21.131,21.131,7.031-14.068a17.641,17.641,0,0,0,1.863-7.889v-22.5Z" transform="translate(-270.641 -116.795)" fill="#fda57d"/><path d="M424.07,186.34c0,.367,0,.728.035,1.1a26.679,26.679,0,0,0,35.549-.03v-11H424.07Z" transform="translate(-270.919 -118.333)" opacity="0.1"/><circle cx="26.684" cy="26.684" r="26.684" transform="translate(143.984 20.992)" fill="#fda57d"/><path d="M406,107.454h44.478s17.789-17.789,0-26.684a60.9,60.9,0,0,0-12.071-4.261c-27.051-6.858-52.773,15.515-49.295,43.2.823,6.541,3.166,11.893,7.993,14.425C415.885,144.009,406,107.454,406,107.454Z" transform="translate(-253.126 -67.306)" opacity="0.1"/><path d="M406,104.964h44.478s17.789-17.789,0-26.684a60.9,60.9,0,0,0-12.071-4.261c-27.051-6.858-52.773,15.515-49.295,43.2.823,6.541,3.166,11.893,7.993,14.425C415.885,141.534,406,104.964,406,104.964Z" transform="translate(-253.126 -66.05)" fill="#333"/><ellipse cx="2.473" cy="4.326" rx="2.473" ry="4.326" transform="translate(151.694 43.697)" fill="#fda57d"/><path d="M283.68,204.151l1.239-3.711,3.707,2.473Z" transform="translate(-143.11 -101.121)" opacity="0.1"/><path d="M543.07,304s-13.458,6.442-17.17,12.636" transform="translate(-322.29 -182.699)" opacity="0.1"/><path d="M429.577,163.03l-1.234,3.707-2.473-3.707Z" transform="translate(-214.842 -82.248)" opacity="0.1"/><path d="M406,104.964h44.478s17.789-17.789,0-26.684a60.9,60.9,0,0,0-12.071-4.261c-27.051-6.858-52.773,15.515-49.295,43.2.823,6.541,3.166,11.893,7.993,14.425C415.885,141.534,406,104.964,406,104.964Z" transform="translate(-253.126 -66.05)" fill="#333"/><path d="M651.424,338.543s9.023,19.618-2.825,21.307-6.442-16.432-6.442-16.432-1.184-5.376-4.068-5.679" transform="translate(-378.887 -199.721)" opacity="0.1"/><path d="M682.412,338.4s-10.728,18.741.922,21.456,7.874-15.792,7.874-15.792,1.655-5.248,4.559-5.3" transform="translate(-398.973 -200.053)" opacity="0.1"/><path d="M649.325,337.418s9.023,19.618-2.824,21.307-6.442-16.432-6.442-16.432S638.874,336.9,636,336.6" transform="translate(-377.833 -199.145)" fill="#ffd180"/><path d="M684.093,336.73s-10.748,18.746.922,21.441,7.874-15.792,7.874-15.792,1.655-5.248,4.559-5.3" transform="translate(-399.817 -199.211)" fill="#ffd180"/><rect width="0.203" height="3.83" transform="translate(264.867 155.502)" fill="#58555d" opacity="0.5"/><rect width="0.203" height="3.83" transform="translate(268.147 155.502)" fill="#58555d" opacity="0.5"/><rect width="0.203" height="5.357" transform="translate(266.368 154.283)" fill="#58555d" opacity="0.5"/><rect width="0.203" height="3.83" transform="translate(286.174 154.684)" fill="#58555d" opacity="0.5"/><rect width="0.203" height="3.83" transform="translate(289.455 154.684)" fill="#58555d" opacity="0.5"/><rect width="0.203" height="5.357" transform="translate(287.676 153.46)" fill="#58555d" opacity="0.5"/></g></svg>