<svg xmlns="http://www.w3.org/2000/svg" xmlns:xlink="http://www.w3.org/1999/xlink" width="173.829" height="191.929" viewBox="0 0 173.829 191.929"><defs><linearGradient id="a" y1="0.5" x2="1" y2="0.5" gradientUnits="objectBoundingBox"><stop offset="0" stop-color="#ed1e79"/><stop offset="1" stop-color="#f2f2f2"/></linearGradient><linearGradient id="b" x1="1.137" y1="0.277" x2="-0.768" y2="0.914" xlink:href="#a"/></defs><g transform="translate(-161.819 -76.663)"><path d="M721.828,656.336a95.011,95.011,0,0,1-95.012,95.012c-52.473,0-78.817-41.935-78.817-94.408s27.243-85.947,78.817-95.616C695.916,548.367,721.828,603.863,721.828,656.336Z" transform="translate(-386.181 -482.756)" opacity="0.65" fill="url(#a)"/><path d="M685.386,699.872c-32.045,32.046-94.8,40.035-116.044,0C550.21,663.816,534.1,611.218,571.8,586.078c51.824-34.55,76.182-27.838,113.583-2.25C735.5,618.115,717.431,667.828,685.386,699.872Z" transform="translate(-382.992 -472.96)" opacity="0.8" fill="url(#b)"/><path d="M626.384,694.664c-34.588,9.16-68.944-15.016-73.7-50.482s21.023-73.19,56.484-77.944,61.615,21.628,72.823,55.608C697.008,667.374,686.565,678.733,626.384,694.664Z" transform="translate(-372.511 -461.965)" opacity="0.86" fill="url(#a)"/><ellipse cx="48.109" cy="48.11" rx="48.109" ry="48.11" transform="translate(196.845 116.834)" fill="#fff"/></g></svg>