<svg xmlns="http://www.w3.org/2000/svg" xmlns:xlink="http://www.w3.org/1999/xlink" width="524.471" height="615.779" viewBox="0 0 524.471 615.779"><defs><linearGradient id="a" x1="0.143" y1="1.023" x2="0.921" y2="-0.014" gradientUnits="objectBoundingBox"><stop offset="0" stop-color="gray" stop-opacity="0.251"/><stop offset="0.54" stop-color="gray" stop-opacity="0.122"/><stop offset="1" stop-color="gray" stop-opacity="0.102"/></linearGradient><linearGradient id="b" x1="0.144" y1="1.024" x2="0.919" y2="-0.013" xlink:href="#a"/><linearGradient id="c" x1="0.5" y1="1" x2="0.5" y2="0" xlink:href="#a"/></defs><g transform="translate(0 0.04)"><g transform="translate(0 -0.04)" opacity="0.5"><path d="M565.866,60.78l-286.129.7A11.761,11.761,0,0,0,268,73.252l1.3,527.417A11.761,11.761,0,0,0,281.1,612.4l286.129-.7a11.761,11.761,0,0,0,11.729-11.785L577.628,72.5A11.761,11.761,0,0,0,565.866,60.78Z" transform="translate(-268 -60.306)" fill="url(#a)"/><rect width="301.287" height="543.823" rx="13.64" transform="translate(4.177 0.735) rotate(-0.14)" fill="#fff"/><path d="M569.406,214.552h0l-.3-125.589A11.445,11.445,0,0,0,557.637,77.55l-55.962.134a24.423,24.423,0,0,1-24.02,20.837l-104.065.253a24.423,24.423,0,0,1-24.123-20.718l-55.125.134A11.445,11.445,0,0,0,282.93,89.659l.308,126.647.893,367.019a11.445,11.445,0,0,0,11.493,11.39l263.294-.64A11.445,11.445,0,0,0,570.3,582.63Z" transform="translate(-271.137 -63.83)" fill="#bbb"/><rect width="67.139" height="4.194" rx="2" transform="translate(118.549 21.045) rotate(-0.86)" fill="#dbdbdb"/><circle cx="2.52" cy="2.52" r="2.52" transform="translate(197.417 19.016) rotate(-0.86)" fill="#dbdbdb"/><rect width="140.272" height="11.185" transform="translate(131.197 81.798)" fill="#e0e0e0"/><rect width="140.272" height="11.185" transform="translate(131.197 104.167)" fill="#e0e0e0"/><ellipse cx="26.492" cy="26.618" rx="26.492" ry="26.618" transform="translate(35.189 67.344)" fill="#f5f5f5"/><path d="M352.939,202.73H329.962a6.848,6.848,0,0,0-5.592,2.97,34.462,34.462,0,0,0,33.964.19,6.84,6.84,0,0,0-5.395-3.159Z" transform="translate(-279.845 -90.135)" fill="#5ef88e"/><path d="M330.305,180s-3.365,9.794-5.205,8.878c0,0,17.725,15.308,33.372,0A46.658,46.658,0,0,0,351.734,180Z" transform="translate(-279.999 -85.359)" fill="#333"/><circle cx="13.167" cy="13.167" r="13.167" transform="translate(48.498 80.558)" fill="#333"/><path d="M72.2,136.73h9.186v3.57a4.218,4.218,0,0,1-4.218,4.218h-.79A4.218,4.218,0,0,1,72.16,140.3v-3.57Z" transform="translate(-15.163 -28.7)" opacity="0.1"/><path d="M73.181,136.45h7.251a.972.972,0,0,1,.972.972v2.622a4.218,4.218,0,0,1-4.218,4.218H76.4a4.218,4.218,0,0,1-4.186-4.218v-2.6a.972.972,0,0,1,.972-1Z" transform="translate(-15.174 -28.642)" fill="#fda57d"/><path d="M340.24,198.066a13.215,13.215,0,0,0,9.186,0V197H340.24Z" transform="translate(-283.18 -88.931)" opacity="0.1"/><circle cx="13.167" cy="13.167" r="13.167" transform="translate(48.498 83.417)" fill="#fda57d"/><path d="M330.14,173.6h25.1s-2.141-10.134-11.635-9.478S330.14,173.6,330.14,173.6Z" transform="translate(-281.058 -82.016)" fill="#333"/><ellipse cx="1.224" cy="2.299" rx="1.224" ry="2.299" transform="translate(47.55 93.725)" fill="#fda57d"/><ellipse cx="1.224" cy="2.299" rx="1.224" ry="2.299" transform="translate(73.268 93.725)" fill="#fda57d"/><path d="M330.14,174.04h25.1s-2.141-10.134-11.635-9.478S330.14,174.04,330.14,174.04Z" transform="translate(-281.058 -82.108)" opacity="0.1"/><rect width="140.272" height="11.185" transform="translate(131.197 166.993)" fill="#e0e0e0"/><rect width="140.272" height="11.185" transform="translate(131.197 189.362)" fill="#e0e0e0"/><ellipse cx="26.492" cy="26.618" rx="26.492" ry="26.618" transform="translate(35.189 152.539)" fill="#e0e0e0"/><rect width="140.272" height="11.185" transform="translate(131.197 252.188)" fill="#e0e0e0"/><rect width="140.272" height="11.185" transform="translate(131.197 274.557)" fill="#e0e0e0"/><ellipse cx="26.492" cy="26.618" rx="26.492" ry="26.618" transform="translate(35.189 237.734)" fill="#e0e0e0"/><rect width="140.272" height="11.185" transform="translate(131.197 337.383)" fill="#e0e0e0"/><rect width="140.272" height="11.185" transform="translate(131.197 359.752)" fill="#e0e0e0"/><ellipse cx="26.492" cy="26.618" rx="26.492" ry="26.618" transform="translate(35.189 322.929)" fill="#e0e0e0"/><rect width="140.272" height="11.185" transform="translate(131.197 422.578)" fill="#e0e0e0"/><rect width="140.272" height="11.185" transform="translate(131.197 444.947)" fill="#e0e0e0"/><ellipse cx="26.492" cy="26.618" rx="26.492" ry="26.618" transform="translate(35.189 408.123)" fill="#e0e0e0"/></g><path d="M799.016,144.67l-286.137.7a11.761,11.761,0,0,0-11.73,11.785l1.3,524.834a11.761,11.761,0,0,0,11.793,11.73l286.145-.7A11.761,11.761,0,0,0,812.1,681.25l-1.3-524.834a11.761,11.761,0,0,0-11.785-11.745Z" transform="translate(-316.993 -77.974)" fill="url(#b)"/><rect width="301.287" height="543.823" rx="13.64" transform="translate(188.331 64.375) rotate(-0.14)" fill="#fff"/><path d="M802.554,296.025l-.3-126.481a11.445,11.445,0,0,0-11.469-11.414l-55.978.134a24.423,24.423,0,0,1-24.02,20.837l-104.057.253a24.423,24.423,0,0,1-24.123-20.718l-55.125.134a11.445,11.445,0,0,0-11.414,11.469l.308,126.647" transform="translate(-320.128 -80.803)" fill="#fafafa"/><path d="M516.46,333.344l.893,367.019a11.445,11.445,0,0,0,11.469,11.414l263.294-.64a11.445,11.445,0,0,0,11.414-11.469l-.9-368.078" transform="translate(-320.21 -117.252)" fill="#fafafa"/><rect width="55.938" height="55.938" transform="translate(221.557 129.948)" fill="#e0e0e0"/><g transform="translate(155.106 232.355)" opacity="0.5"><rect width="369.365" height="125.644" fill="url(#c)"/></g><rect width="360.574" height="116.174" transform="translate(159.506 237.52)" fill="#fff"/><rect width="140.272" height="11.185" transform="translate(303.309 280.544)" fill="#5ffa8f"/><rect width="140.272" height="11.185" transform="translate(303.309 302.921)" fill="#5ffa8f"/><rect width="140.272" height="11.185" transform="translate(303.309 404.466)" fill="#e0e0e0"/><rect width="140.272" height="11.185" transform="translate(303.309 426.835)" fill="#eee"/><rect width="62.818" height="19.794" transform="translate(342.036 174.694)" fill="#5ffa8f"/><ellipse cx="26.492" cy="26.618" rx="26.492" ry="26.618" transform="translate(207.3 266.09)" fill="#f5f5f5"/><path d="M570.837,454.4H547.852a6.848,6.848,0,0,0-5.592,2.97,34.462,34.462,0,0,0,33.964.19A6.841,6.841,0,0,0,570.837,454.4Z" transform="translate(-325.631 -143.059)" fill="#5ffa8f"/><path d="M548.205,431.68s-3.365,9.794-5.205,8.878c0,0,17.725,15.308,33.372,0a46.658,46.658,0,0,0-6.738-8.878Z" transform="translate(-325.787 -138.285)" fill="#333"/><circle cx="13.167" cy="13.167" r="13.167" transform="translate(220.61 279.312)" fill="#333"/><path d="M290.1,388.41h9.186v3.57a4.218,4.218,0,0,1-4.218,4.218h-.79a4.218,4.218,0,0,1-4.218-4.218v-3.57Z" transform="translate(-60.951 -81.626)" opacity="0.1"/><path d="M291.071,388.13h7.251a.972.972,0,0,1,.972.972v2.6a4.218,4.218,0,0,1-4.226,4.226h-.79a4.218,4.218,0,0,1-4.218-4.218v-2.6a.972.972,0,0,1,.972-.972Z" transform="translate(-60.951 -81.568)" fill="#fda57d"/><path d="M558.13,449.7a13.214,13.214,0,0,0,9.186,0v-1.13H558.13Z" transform="translate(-328.966 -141.834)" opacity="0.1"/><circle cx="13.167" cy="13.167" r="13.167" transform="translate(220.61 282.163)" fill="#fda57d"/><path d="M548,425.28h25.1s-2.141-10.134-11.635-9.478S548,425.28,548,425.28Z" transform="translate(-326.837 -134.942)" fill="#333"/><ellipse cx="1.224" cy="2.299" rx="1.224" ry="2.299" transform="translate(219.662 292.471)" fill="#fda57d"/><ellipse cx="1.224" cy="2.299" rx="1.224" ry="2.299" transform="translate(245.372 292.471)" fill="#fda57d"/><path d="M548,425.71h25.1s-2.141-10.134-11.635-9.478S548,425.71,548,425.71Z" transform="translate(-326.837 -135.032)" opacity="0.1"/><ellipse cx="26.492" cy="26.618" rx="26.492" ry="26.618" transform="translate(224.512 390.873)" fill="#e0e0e0"/><ellipse cx="26.492" cy="26.618" rx="26.492" ry="26.618" transform="translate(224.512 493.279)" fill="#e0e0e0"/><rect width="140.272" height="11.185" transform="translate(303.309 503.429)" fill="#e0e0e0"/><rect width="140.272" height="11.185" transform="translate(303.309 525.798)" fill="#eee"/><rect width="140.272" height="11.185" transform="translate(303.309 129.948)" fill="#e0e0e0"/><rect width="140.272" height="11.185" transform="translate(303.309 152.325)" fill="#e0e0e0"/><rect width="67.139" height="4.194" rx="2" transform="translate(302.702 84.694) rotate(-0.86)" fill="#dbdbdb"/><circle cx="2.52" cy="2.52" r="2.52" transform="translate(381.57 82.673) rotate(-0.86)" fill="#dbdbdb"/></g></svg>