<svg xmlns="http://www.w3.org/2000/svg" width="58.915" height="58.915" viewBox="0 0 58.915 58.915">
  <g id="Group_69" data-name="Group 69" transform="translate(-79.542 -350.542)">
    <g id="Group_49" data-name="Group 49" transform="translate(-1736 -2942)">
      <g id="noun_Thinking_emoji_949356" data-name="noun_Thinking emoji_949356" transform="translate(1813 3290)">
        <g id="Group_47" data-name="Group 47" transform="translate(3.542 3.542)">
          <path id="Path_64" data-name="Path 64" d="M28.458,0A28.458,28.458,0,1,0,56.915,28.458,28.427,28.427,0,0,0,28.458,0Z" fill="none" stroke="#fff" stroke-width="2"/>
        </g>
        <g id="Group_48" data-name="Group 48">
          <path id="Path_65" data-name="Path 65" d="M40.2,37.5a3.257,3.257,0,0,0-.5,2,3.257,3.257,0,0,0,.5,2" fill="#fff" stroke="#fff" stroke-linecap="round" stroke-miterlimit="10" stroke-width="2"/>
          <line id="Line_1" data-name="Line 1" x1="14" transform="translate(25.8 39.5)" fill="none" stroke="#fff" stroke-linecap="round" stroke-miterlimit="10" stroke-width="2"/>
        </g>
        <line id="Line_2" data-name="Line 2" y1="2.6" x2="4.6" transform="translate(16.2 16.2)" fill="none" stroke="#fff" stroke-linecap="round" stroke-linejoin="round" stroke-miterlimit="10" stroke-width="3"/>
      </g>
    </g>
    <g id="Ellipse_26" data-name="Ellipse 26" transform="translate(96.09 369.828)" fill="none" stroke="#fff" stroke-width="2">
      <circle cx="3.182" cy="3.182" r="3.182" stroke="none"/>
      <circle cx="3.182" cy="3.182" r="4.182" fill="none"/>
    </g>
    <g id="Ellipse_28" data-name="Ellipse 28" transform="translate(115.09 369.828)" fill="none" stroke="#fff" stroke-width="2">
      <circle cx="3.182" cy="3.182" r="3.182" stroke="none"/>
      <circle cx="3.182" cy="3.182" r="4.182" fill="none"/>
    </g>
  </g>
</svg>
