<svg xmlns="http://www.w3.org/2000/svg" width="63" height="63" viewBox="0 0 63 63">
  <g id="Group_45" data-name="Group 45" transform="translate(-99 -363)">
    <path id="Path_58" data-name="Path 58" d="M36.5,5A31.5,31.5,0,1,0,68,36.5,31.511,31.511,0,0,0,36.5,5Zm0,60.48A28.98,28.98,0,1,1,65.48,36.5,28.984,28.984,0,0,1,36.5,65.48Z" transform="translate(94 358)" fill="#fff"/>
    <path id="Path_59" data-name="Path 59" d="M42.56,15.3A7.751,7.751,0,0,0,35,23.238a7.569,7.569,0,1,0,15.12,0A7.751,7.751,0,0,0,42.56,15.3Zm0,13.482a5.227,5.227,0,0,1-5.04-5.418,5.053,5.053,0,1,1,10.08,0A5.227,5.227,0,0,1,42.56,28.782Z" transform="translate(101.8 360.678)" fill="#fff"/>
    <path id="Path_60" data-name="Path 60" d="M28.12,23.338A7.751,7.751,0,0,0,20.56,15.4,7.751,7.751,0,0,0,13,23.338a7.751,7.751,0,0,0,7.56,7.938A7.751,7.751,0,0,0,28.12,23.338Zm-12.6,0a5.227,5.227,0,0,1,5.04-5.418,5.227,5.227,0,0,1,5.04,5.418,5.227,5.227,0,0,1-5.04,5.418A5.227,5.227,0,0,1,15.52,23.338Z" transform="translate(96.08 360.704)" fill="#fff"/>
    <path id="Path_61" data-name="Path 61" d="M18,37.52a15.12,15.12,0,1,0,30.24,0V35H18Zm27.72,0a12.6,12.6,0,1,1-25.2,0Z" transform="translate(97.38 365.8)" fill="#fff"/>
  </g>
</svg>
