<svg xmlns="http://www.w3.org/2000/svg" width="65.479" height="65.479" viewBox="0 0 65.479 65.479">
  <g id="Group_70" data-name="Group 70" transform="translate(-118.261 -349.361)">
    <path id="Path_66" data-name="Path 66" d="M52.639,84.379A31.739,31.739,0,1,1,84.379,52.639,31.769,31.769,0,0,1,52.639,84.379Z" transform="translate(98.361 329.461)" fill="none" stroke="#fff" stroke-width="2"/>
    <path id="Path_67" data-name="Path 67" d="M50,52.9c-3.1,0-5.6,4.5-5.6,10.1S46.8,73.1,50,73.1c3.1,0,5.6-4.5,5.6-10.1S53.1,52.9,50,52.9Zm0,18.2c-1.7,0-3.6-3.3-3.6-8.1s1.9-8.1,3.6-8.1,3.6,3.3,3.6,8.1S51.7,71.1,50,71.1Z" transform="translate(101 332.1)" fill="#fff"/>
    <path id="Path_68" data-name="Path 68" d="M37.5,41.3,34,44.8l-3.5-3.5L29,42.7l3.6,3.6L29,49.8l1.5,1.4L34,47.7l3.5,3.5L39,49.8l-3.6-3.5L39,42.7Z" transform="translate(101 332.1)" fill="#fff"/>
    <path id="Path_69" data-name="Path 69" d="M68.5,41.3,65,44.8l-3.5-3.5L60,42.7l3.6,3.6L60,49.8l1.5,1.4L65,47.7l3.5,3.5L70,49.8l-3.6-3.5L70,42.7Z" transform="translate(101 332.1)" fill="#fff"/>
  </g>
</svg>
