<svg id="smile_2_" data-name="smile (2)" xmlns="http://www.w3.org/2000/svg" width="62.055" height="62.055" viewBox="0 0 62.055 62.055">
  <g id="Group_19" data-name="Group 19">
    <g id="Group_18" data-name="Group 18">
      <path id="Path_21" data-name="Path 21" d="M31.027,0A31.027,31.027,0,1,0,62.055,31.027,31.063,31.063,0,0,0,31.027,0Zm0,59.357A28.329,28.329,0,1,1,59.357,31.027,28.361,28.361,0,0,1,31.027,59.357Z" fill="#fff"/>
      <path id="Path_22" data-name="Path 22" d="M104.094,132.047a4.047,4.047,0,1,0-4.047,4.047A4.052,4.052,0,0,0,104.094,132.047Zm-5.4,0a1.349,1.349,0,1,1,1.349,1.349A1.351,1.351,0,0,1,98.7,132.047Z" transform="translate(-79.812 -106.416)" fill="#fff"/>
      <path id="Path_23" data-name="Path 23" d="M228.047,128a4.047,4.047,0,1,0,4.047,4.047A4.052,4.052,0,0,0,228.047,128Zm0,5.4a1.349,1.349,0,1,1,1.349-1.349A1.351,1.351,0,0,1,228.047,133.4Z" transform="translate(-186.227 -106.416)" fill="#fff"/>
      <path id="Path_24" data-name="Path 24" d="M130.531,224.344a1.349,1.349,0,0,0-1.9.105,15.008,15.008,0,0,1-22.272,0,1.349,1.349,0,1,0-2.01,1.8,17.706,17.706,0,0,0,26.292,0A1.35,1.35,0,0,0,130.531,224.344Z" transform="translate(-86.463 -186.227)" fill="#fff"/>
    </g>
  </g>
</svg>
