<svg xmlns="http://www.w3.org/2000/svg" width="58.684" height="57.836" viewBox="0 0 58.684 57.836">
  <g id="Group_68" data-name="Group 68" transform="translate(-87.385 -351.32)">
    <g id="Path_62" data-name="Path 62" transform="translate(84.179 348.179)" fill="none">
      <path d="M32.549,58.977A27.133,27.133,0,0,1,5.206,32.059,27.133,27.133,0,0,1,32.549,5.141,27.133,27.133,0,0,1,59.891,32.059,27.133,27.133,0,0,1,32.549,58.977Z" stroke="none"/>
      <path d="M 32.54860305786133 58.97718048095703 C 47.64795303344727 58.97718048095703 59.89069366455078 46.9246940612793 59.89068222045898 32.05920028686523 C 59.89068222045898 17.19282150268555 47.64921569824219 5.141231536865234 32.548583984375 5.141231536865234 C 17.44795417785645 5.141231536865234 5.206483840942383 17.19281196594238 5.206483840942383 32.05920028686523 C 5.206483840942383 46.92559051513672 17.44795417785645 58.97718048095703 32.548583984375 58.9771728515625 L 32.548583984375 58.97718048095703 C 32.54950714111328 58.97718048095703 32.54767990112305 58.97718048095703 32.54860305786133 58.97718048095703 M 32.54885482788086 60.97718048095703 L 32.54860305786133 60.97718048095703 L 32.548583984375 60.97718048095703 L 32.54833221435547 60.97718048095703 C 28.5921745300293 60.97718048095703 24.75275421142578 60.21377182006836 21.13699340820312 58.70816040039062 C 17.64358329772949 57.25349044799805 14.50609397888184 55.17092132568359 11.81168365478516 52.518310546875 C 9.115103721618652 49.86356353759766 6.997464179992676 46.77095031738281 5.517573833465576 43.32637023925781 C 3.984044075012207 39.75694274902344 3.206484079360962 35.96612167358398 3.206484079360962 32.05920028686523 C 3.206484079360962 28.15228080749512 3.984044075012207 24.3614616394043 5.517573833465576 20.79203224182129 C 6.997464179992676 17.34745216369629 9.115103721618652 14.25484180450439 11.81168365478516 11.6000919342041 C 14.50609397888184 8.947482109069824 17.64357376098633 6.864921569824219 21.13698387145996 5.410251617431641 C 24.75274467468262 3.904641628265381 28.59215354919434 3.141231775283813 32.548583984375 3.141231775283813 C 36.50501251220703 3.141231775283813 40.34442520141602 3.904641628265381 43.96018218994141 5.410251617431641 C 47.45359420776367 6.864921569824219 50.59107208251953 8.947491645812988 53.28548431396484 11.60010147094727 C 55.98206329345703 14.25484180450439 58.09970474243164 17.34746170043945 59.57959365844727 20.79203224182129 C 61.11312484741211 24.3614616394043 61.89068222045898 28.15228080749512 61.89068222045898 32.05920028686523 C 61.89068222045898 35.96589279174805 61.11305236816406 39.75661087036133 59.57939529418945 43.32605361938477 C 58.09941482543945 46.77055358886719 55.98167419433594 49.8631706237793 53.28501510620117 52.51798248291016 C 50.59053421020508 55.1706428527832 47.45304489135742 57.25327301025391 43.9597053527832 58.70801162719727 C 40.34397506713867 60.21372222900391 36.50472259521484 60.97718048095703 32.54860305786133 60.97718048095703 L 32.54885482788086 60.97718048095703 Z" stroke="none" fill="#fff"/>
    </g>
    <g id="Ellipse_26" data-name="Ellipse 26" transform="translate(104.09 369.828)" fill="none" stroke="#fff" stroke-width="2">
      <circle cx="3.182" cy="3.182" r="3.182" stroke="none"/>
      <circle cx="3.182" cy="3.182" r="4.182" fill="none"/>
    </g>
    <g id="Ellipse_27" data-name="Ellipse 27" transform="translate(123 369.828)" fill="none" stroke="#fff" stroke-width="2">
      <circle cx="3.182" cy="3.182" r="3.182" stroke="none"/>
      <circle cx="3.182" cy="3.182" r="4.182" fill="none"/>
    </g>
    <g id="Path_63" data-name="Path 63" transform="translate(93.999 367.221)" fill="none">
      <path d="M29.093,27.486H16.364a2.121,2.121,0,1,1,0-4.243H29.093a2.121,2.121,0,1,1,0,4.243Z" stroke="none"/>
      <path d="M 29.09277534484863 27.48567771911621 C 30.26439476013184 27.48567771911621 31.21419525146484 26.535888671875 31.21419525146484 25.3642578125 C 31.21419525146484 24.192626953125 30.26439476013184 23.24283790588379 29.09277534484863 23.24283790588379 L 16.36425590515137 23.24283790588379 C 15.19263553619385 23.24283790588379 14.24283599853516 24.192626953125 14.24283599853516 25.3642578125 C 14.24283599853516 26.535888671875 15.19263553619385 27.48567771911621 16.36425590515137 27.48567771911621 L 29.09277534484863 27.48567771911621 M 29.09277534484863 29.48567771911621 L 16.36425590515137 29.48567771911621 C 14.09169578552246 29.48567771911621 12.24283599853516 27.63681793212891 12.24283599853516 25.3642578125 C 12.24283599853516 23.09169769287109 14.09169578552246 21.24283790588379 16.36425590515137 21.24283790588379 L 29.09277534484863 21.24283790588379 C 31.36533546447754 21.24283790588379 33.21419525146484 23.09169769287109 33.21419525146484 25.3642578125 C 33.21419525146484 27.63681793212891 31.36533546447754 29.48567771911621 29.09277534484863 29.48567771911621 Z" stroke="none" fill="#fff"/>
    </g>
  </g>
</svg>
