<svg xmlns="http://www.w3.org/2000/svg" width="38.846" height="43.614" viewBox="0 0 38.846 43.614">
  <g id="noun_Exercise_1932643" transform="translate(-4.717 -2.904)">
    <path id="Path_42" data-name="Path 42" d="M6.413,26.762A2.423,2.423,0,0,0,8.3,26.6L18.662,21.1l2.52,6.3L15.454,36a.788.788,0,0,0-.087.178l-2.165,6.5a2.922,2.922,0,0,0,2.292,3.806,3.014,3.014,0,0,0,.487.04,2.913,2.913,0,0,0,2.812-2.155l1.663-6.081,6.052-6.052L32.541,37.6,35.4,44.47A2.817,2.817,0,0,0,40.68,42.5l-2.353-7.058a.754.754,0,0,0-.113-.215l-6.586-8.781L29.521,15.915,40.271,7.7a2.667,2.667,0,0,0-3.085-4.349L26.109,10.628l-7.441,4.208-12.751,7.5a2.452,2.452,0,0,0-.945,3.195A2.424,2.424,0,0,0,6.413,26.762Zm.261-3.147L19.41,16.126,26.882,11.9,38,4.59a1.181,1.181,0,0,1,1.366,1.925l-11.116,8.5a.743.743,0,0,0-.277.736L30.2,26.9a.736.736,0,0,0,.134.3l6.613,8.819,2.315,6.946a1.332,1.332,0,0,1-2.493.934l-2.928-7.029a.759.759,0,0,0-.192-.27l-6.687-5.944a.743.743,0,0,0-1.019.03L19.26,37.368a.743.743,0,0,0-.192.33l-1.709,6.273a1.436,1.436,0,1,1-2.749-.832l2.134-6.4L22.633,27.9a.743.743,0,0,0,.074-.689l-2.972-7.43a.743.743,0,0,0-1.04-.38L7.6,25.282a.938.938,0,0,1-.739.065.947.947,0,0,1-.562-.482.957.957,0,0,1,.369-1.249Z" transform="translate(0 0)" fill="#fff"/>
    <path id="Path_43" data-name="Path 43" d="M47.3,26.251a30.282,30.282,0,0,0-2.69-6.856A.743.743,0,0,0,43.3,20.1a28.8,28.8,0,0,1,2.557,6.518.743.743,0,0,0,.719.558.732.732,0,0,0,.186-.024A.743.743,0,0,0,47.3,26.251Z" transform="translate(-9.896 -4.143)" fill="#fff"/>
    <path id="Path_44" data-name="Path 44" d="M48.4,34.229a.64.64,0,0,0,.092-.006.743.743,0,0,0,.646-.828q-.048-.383-.1-.762a.743.743,0,1,0-1.47.223q.055.361.1.724a.743.743,0,0,0,.736.649Z" transform="translate(-11.009 -7.478)" fill="#fff"/>
    <path id="Path_45" data-name="Path 45" d="M49.379,15.1a.743.743,0,0,0-.284,1.012,34,34,0,0,1,3.039,7.267c.206.716.39,1.45.549,2.181a34.417,34.417,0,0,1,.775,7.272.743.743,0,0,0,1.486,0,35.866,35.866,0,0,0-.809-7.587c-.166-.763-.358-1.529-.573-2.277a35.45,35.45,0,0,0-3.171-7.585.743.743,0,0,0-1.012-.284Z" transform="translate(-11.381 -3.11)" fill="#fff"/>
    <path id="Path_46" data-name="Path 46" d="M23.086,5H19.743A.743.743,0,0,0,19,5.743V9.086A4.086,4.086,0,1,0,23.086,5Zm0,1.486a2.6,2.6,0,0,1,2.6,2.6c0,.036-.009.068-.01.1a8.28,8.28,0,0,0-5.191-1.952V6.486Zm0,5.2a2.6,2.6,0,0,1-2.6-2.6V8.724a6.807,6.807,0,0,1,4.633,1.964,2.586,2.586,0,0,1-2.033,1Z" transform="translate(-3.671 -0.539)" fill="#fff"/>
  </g>
</svg>
