<svg xmlns="http://www.w3.org/2000/svg" width="35.824" height="46.199" viewBox="0 0 35.824 46.199">
  <g id="noun_mind_1635479" transform="translate(-12.123 -11.693)">
    <g id="Group_32" data-name="Group 32" transform="translate(12.123 11.693)">
      <g id="Group_31" data-name="Group 31">
        <g id="Path_40" data-name="Path 40" transform="translate(-20.155 -11.693)" fill="#fff">
          <path d="M 24.2721004486084 57.79225921630859 C 24.17644309997559 57.79225921630859 24.07107162475586 57.74008178710938 23.95953941345215 57.684326171875 C 23.84080123901367 57.61204528808594 23.76443672180176 57.50565719604492 23.73858070373535 57.37640762329102 C 23.71331024169922 57.25002288818359 23.73978996276855 57.11196136474609 23.81316375732422 56.98693084716797 C 23.93995475769043 56.82501983642578 24.63558959960938 55.60576248168945 24.97236061096191 53.4869499206543 C 25.30195999145508 51.4132080078125 25.36008071899414 47.96315002441406 23.76521110534668 43.30363845825195 C 22.82841110229492 40.62703704833984 21.26086044311523 36.1483268737793 20.58913040161133 31.56974792480469 C 20.23246002197266 29.13865852355957 20.16147041320801 26.89989852905273 20.37812995910645 24.91567802429199 C 20.63074111938477 22.60226821899414 21.28162002563477 20.56029891967773 22.31270027160645 18.84647750854492 C 24.51840972900391 15.26965808868408 28.50205993652344 12.99840831756592 34.15242004394531 12.09675884246826 C 35.53363037109375 11.89533805847168 36.86783981323242 11.7931079864502 38.11664962768555 11.7931079864502 C 42.04933166503906 11.7931079864502 45.32382202148438 12.79917812347412 47.84917068481445 14.78336811065674 C 52.37961196899414 18.36003875732422 53.28594970703125 24.16988754272461 53.4653205871582 26.50175857543945 C 53.52513122558594 27.3389892578125 53.1502685546875 28.13410758972168 52.48701095581055 28.57626914978027 L 52.19028091430664 28.75417900085449 L 52.18450927734375 28.75763893127441 L 52.17926025390625 28.76183891296387 C 51.86008071899414 29.01717758178711 51.66577911376953 29.34148788452148 51.60174942016602 29.72573852539062 L 51.60039138793945 29.73390769958496 L 51.60039138793945 29.74217796325684 C 51.60039138793945 30.1507682800293 51.74259948730469 30.52731895446777 51.99057006835938 30.77527809143066 C 52.92169952392578 31.65744781494141 54.61573028564453 33.3950080871582 55.52133941650391 35.14153671264648 L 55.52386856079102 35.14640808105469 L 55.52690887451172 35.15097808837891 C 55.97563934326172 35.82406997680664 55.99631881713867 36.68503952026367 55.58222198486328 37.45407867431641 C 55.1740608215332 38.21208953857422 54.41997146606445 38.66463851928711 53.56502914428711 38.66463851928711 C 52.84654998779297 38.66463851928711 52.26203155517578 39.2491569519043 52.26203155517578 39.96762847900391 L 52.26203155517578 46.04275894165039 C 52.26203155517578 47.31428909301758 51.22756958007812 48.34874725341797 49.95603942871094 48.34874725341797 L 43.03882217407227 48.34874725341797 C 42.32035064697266 48.34874725341797 41.73583221435547 48.93326950073242 41.73583221435547 49.65173721313477 L 41.73583221435547 55.72686767578125 C 41.73583221435547 56.03150939941406 41.53897857666016 56.22835922241211 41.23432922363281 56.22835922241211 C 40.92969131469727 56.22835922241211 40.73284149169922 56.03150939941406 40.73284149169922 55.72686767578125 L 40.73284149169922 49.59158706665039 C 40.73284149169922 48.320068359375 41.76729965209961 47.28561019897461 43.03882217407227 47.28561019897461 L 49.95603942871094 47.28561019897461 C 50.67451095581055 47.28561019897461 51.25902938842773 46.70108795166016 51.25902938842773 45.98260879516602 L 51.25902938842773 39.90747833251953 C 51.25902938842773 38.63594818115234 52.29349899291992 37.60149002075195 53.56502914428711 37.60149002075195 C 54.0460090637207 37.60149002075195 54.44916915893555 37.37809753417969 54.73093032836914 36.95546722412109 C 54.99288940429688 36.56251907348633 54.99288940429688 36.03447723388672 54.73093032836914 35.64152908325195 C 53.7678108215332 34.10044860839844 52.12382888793945 32.37004852294922 51.22974014282227 31.4759578704834 C 50.71846008300781 30.96466827392578 50.4788818359375 30.32640838623047 50.53689193725586 29.63017845153809 C 50.59555053710938 28.92633247375488 50.95173645019531 28.2963752746582 51.51427841186523 27.90130615234375 L 51.81198120117188 27.72268867492676 C 52.23246002197266 27.4424991607666 52.46191024780273 26.98151779174805 52.4015007019043 26.54459762573242 C 52.33376312255859 25.33469581604004 51.76530075073242 19.17469596862793 47.19134140014648 15.52878856658936 C 44.87649154663086 13.66782855987549 41.83864974975586 12.72411823272705 38.16255187988281 12.72411823272705 C 36.93201065063477 12.72411823272705 35.61286163330078 12.83106803894043 34.24174880981445 13.04200839996338 C 28.95647048950195 13.88284873962402 25.22970962524414 16.0030574798584 23.16450119018555 19.34383773803711 C 18.91195106506348 26.33015823364258 22.68953132629395 37.21846008300781 24.71897125244141 43.06804656982422 C 26.0710506439209 46.97678756713867 26.50382995605469 50.70359802246094 25.97047996520996 53.84548950195312 C 25.57907295227051 56.15122985839844 24.7898006439209 57.41430282592773 24.67559623718262 57.58787155151367 C 24.54488754272461 57.71601486206055 24.39462852478027 57.79225921630859 24.2721004486084 57.79225921630859 Z" stroke="none"/>
          <path d="M 38.11627197265625 11.89310836791992 C 36.87247085571289 11.89310836791992 35.54325103759766 11.99498748779297 34.16817855834961 12.19549942016602 C 28.54787063598633 13.09235763549805 24.58755111694336 15.34804916381836 22.39839172363281 18.89802932739258 C 21.37483215332031 20.59934997558594 20.72856903076172 22.62762832641602 20.4775390625 24.92653656005859 C 20.26179885864258 26.90232849121094 20.3326301574707 29.13253784179688 20.68807220458984 31.55523681640625 C 21.3584098815918 36.12432861328125 22.92398071289062 40.59738922119141 23.85982131958008 43.27124786376953 C 25.46134948730469 47.95021057128906 25.40250015258789 51.41769790649414 25.07112121582031 53.50263977050781 C 24.73648834228516 55.60801696777344 24.06487274169922 56.8084602355957 23.89975738525391 57.03695678710938 C 23.77412414550781 57.25028228759766 23.81852722167969 57.47895431518555 24.00817489624023 57.59683990478516 C 24.10333633422852 57.64438247680664 24.20090103149414 57.6922492980957 24.27210235595703 57.6922492980957 C 24.36544036865234 57.6922492980957 24.48901748657227 57.62809371948242 24.59800338745117 57.52379608154297 C 24.72892379760742 57.32254791259766 25.48985290527344 56.07933807373047 25.87189102172852 53.82875061035156 C 26.10789108276367 52.4384880065918 26.1568489074707 50.93026733398438 26.01739120483398 49.34597015380859 C 25.84360122680664 47.37153625488281 25.37493896484375 45.27030944824219 24.62448883056641 43.1008186340332 C 22.58964920043945 37.23567962646484 18.80204010009766 26.31839752197266 23.07944107055664 19.291259765625 C 25.16064071655273 15.92461013793945 28.91073226928711 13.78885650634766 34.2265510559082 12.94318008422852 C 35.60253143310547 12.73148727416992 36.92679214477539 12.62413787841797 38.16255187988281 12.62411880493164 C 41.86194229125977 12.62405014038086 44.92085266113281 13.57518768310547 47.253662109375 15.45059967041016 C 51.85586547851562 19.11899566650391 52.43191528320312 25.30785369873047 52.50110626220703 26.53488540649414 C 52.56481552124023 27.00837326049805 52.31842803955078 27.50537490844727 51.8714714050293 27.80333709716797 L 51.86750793457031 27.80597686767578 L 51.86343002319336 27.80842971801758 L 51.56882476806641 27.98519134521484 C 51.03228378295898 28.36331558227539 50.69263458251953 28.96548843383789 50.63655090332031 29.63848876953125 C 50.58026123046875 30.31398773193359 50.80363082885742 30.90840911865234 51.30045318603516 31.40524673461914 C 52.19710159301758 32.30189895629883 53.84564590454102 34.03720474243164 54.81582641601562 35.58860778808594 C 55.09820175170898 36.01446914672852 55.09764862060547 36.58566665649414 54.81413269042969 37.01093673706055 C 54.51296234130859 37.46269989013672 54.08102035522461 37.70148849487305 53.56501770019531 37.70148849487305 C 52.3486328125 37.70148849487305 51.35903167724609 38.69108581542969 51.35903167724609 39.90747833251953 L 51.35903167724609 45.98260879516602 C 51.35903167724609 46.7562255859375 50.72965240478516 47.3856086730957 49.95603942871094 47.3856086730957 L 43.038818359375 47.3856086730957 C 41.82242965698242 47.3856086730957 40.83283233642578 48.37520599365234 40.83283233642578 49.59159088134766 L 40.83283233642578 55.72686004638672 C 40.83283233642578 55.97826766967773 40.9829216003418 56.12835693359375 41.23432922363281 56.12835693359375 C 41.48574066162109 56.12835693359375 41.63582992553711 55.97826766967773 41.63582992553711 55.72686004638672 L 41.63582992553711 49.65174102783203 C 41.63582992553711 48.87812805175781 42.26521301269531 48.24874877929688 43.038818359375 48.24874877929688 L 49.95603942871094 48.24874877929688 C 51.17243194580078 48.24874877929688 52.16203308105469 47.25914764404297 52.16203308105469 46.04275894165039 L 52.16203308105469 39.96762847900391 C 52.16203308105469 39.19401931762695 52.79141235351562 38.56463623046875 53.56501770019531 38.56463623046875 C 54.382568359375 38.56463623046875 55.10374069213867 38.13174819946289 55.49417114257812 37.40666961669922 C 55.89043045043945 36.67075729370117 55.8715705871582 35.84823989868164 55.44371032714844 35.20644760131836 L 55.4376220703125 35.19731903076172 L 55.43257141113281 35.18756866455078 C 54.53371047973633 33.45405960083008 52.84835052490234 31.7257194519043 51.92372894287109 30.84975814819336 L 51.92176818847656 30.84789657592773 L 51.91986083984375 30.84598922729492 C 51.65327072143555 30.57940673828125 51.50038146972656 30.17707824707031 51.50038146972656 29.74217987060547 L 51.50038146972656 29.72562789916992 L 51.50310134887695 29.70929718017578 C 51.57131958007812 29.29999923706055 51.77779006958008 28.95494842529297 52.11679077148438 28.68375778198242 L 52.12730026245117 28.67535018920898 L 52.13883209228516 28.66842651367188 L 52.43542861938477 28.49047088623047 C 53.06637191772461 28.06768417358398 53.42269897460938 27.30864715576172 53.36560821533203 26.50942993164062 C 53.18724060058594 24.19068908691406 52.2866096496582 18.41402816772461 47.78739166259766 14.86199951171875 C 45.2801513671875 12.89202880859375 42.02643966674805 11.89314651489258 38.11640930175781 11.89310836791992 L 38.11627197265625 11.89310836791992 M 38.11664199829102 11.6931037902832 C 42.07323455810547 11.69314575195312 45.35566711425781 12.69701766967773 47.91094970703125 14.70473861694336 C 52.48233032226562 18.31372833251953 53.38457107543945 24.14824676513672 53.56501770019531 26.49408721923828 C 53.62518310546875 27.33618927001953 53.2642822265625 28.17828750610352 52.54248046875 28.65947723388672 L 52.24172973632812 28.83992767333984 C 51.94097900390625 29.08052825927734 51.76052856445312 29.38127899169922 51.70037841796875 29.74217987060547 C 51.70037841796875 30.10306930541992 51.8206787109375 30.46397018432617 52.061279296875 30.70456695556641 C 53.20413208007812 31.78726959228516 54.76802062988281 33.47145843505859 55.61012268066406 35.09550857543945 C 56.09130859375 35.81729888916016 56.09130859375 36.71954727172852 55.67026138305664 37.50148773193359 C 55.24922180175781 38.28343963623047 54.46726989746094 38.76464080810547 53.56501770019531 38.76464080810547 C 52.90338134765625 38.76464080810547 52.36203002929688 39.30598831176758 52.36203002929688 39.96762847900391 L 52.36203002929688 46.04275894165039 C 52.36203002929688 47.36605072021484 51.27933120727539 48.44874572753906 49.95603942871094 48.44874572753906 L 43.038818359375 48.44874572753906 C 42.37718200683594 48.44874572753906 41.83583068847656 48.99008941650391 41.83583068847656 49.65174102783203 L 41.83583068847656 55.72686004638672 C 41.83583068847656 56.0877571105957 41.59523010253906 56.3283576965332 41.23432922363281 56.3283576965332 C 40.87343215942383 56.3283576965332 40.63283157348633 56.0877571105957 40.63283157348633 55.72686004638672 L 40.63283157348633 49.59159088134766 C 40.63283157348633 48.2682991027832 41.71553039550781 47.18560791015625 43.038818359375 47.18560791015625 L 49.95603942871094 47.18560791015625 C 50.61769104003906 47.18560791015625 51.15903091430664 46.64424896240234 51.15903091430664 45.98260879516602 L 51.15903091430664 39.90747833251953 C 51.15903091430664 38.58419036865234 52.24172973632812 37.50148773193359 53.56501770019531 37.50148773193359 C 54.04623031616211 37.50148773193359 54.40711975097656 37.26089859008789 54.64772033691406 36.89999771118164 C 54.88832092285156 36.53909683227539 54.88832092285156 36.05789947509766 54.64772033691406 35.69699859619141 C 53.74546813964844 34.2534065246582 52.24172973632812 32.62936782836914 51.15903091430664 31.54666900634766 C 50.61769104003906 31.00531768798828 50.37709045410156 30.34367752075195 50.43724060058594 29.62187957763672 C 50.49739074707031 28.90007781982422 50.85829162597656 28.23843765258789 51.45977783203125 27.81737899780273 L 51.76052856445312 27.63692855834961 C 52.12142944335938 27.39633941650391 52.36203002929688 26.97528839111328 52.3018798828125 26.55423736572266 C 52.18157958984375 24.38884735107422 51.27934265136719 18.91521835327148 47.12899780273438 15.60698699951172 C 44.83164978027344 13.76009368896484 41.82625579833984 12.82404708862305 38.16254806518555 12.82411575317383 C 36.93414688110352 12.82413864135742 35.63137817382812 12.92939758300781 34.25696182250977 13.14085006713867 C 28.96377944946289 13.98293685913086 25.29465103149414 16.08818817138672 23.24956130981445 19.39641952514648 C 19.03908157348633 26.31363677978516 22.76836013793945 37.14059829711914 24.81344223022461 43.03527069091797 C 28.12168121337891 52.59907913208008 24.87360000610352 57.47119903564453 24.75329208374023 57.65164947509766 C 24.63299942016602 57.77195739746094 24.45254898071289 57.89225006103516 24.27210235595703 57.89225006103516 C 24.15180206298828 57.89225006103516 24.03150177001953 57.83209991455078 23.91120147705078 57.77195739746094 C 23.61045074462891 57.59149932861328 23.55030059814453 57.23060607910156 23.73075103759766 56.92985916137695 C 23.79090118408203 56.86970901489258 26.73823928833008 52.2983283996582 23.67060089111328 43.33601760864258 C 21.56536102294922 37.32104873657227 17.77593231201172 26.1933479309082 22.22700881958008 18.79492950439453 C 24.45254898071289 15.18593978881836 28.48258209228516 12.90024948120117 34.13666152954102 11.99799728393555 C 35.53055953979492 11.79472351074219 36.85762405395508 11.69309234619141 38.11664199829102 11.6931037902832 Z" stroke="none" fill="#fff"/>
        </g>
        <g id="Path_41" data-name="Path 41" transform="translate(-26.891 -15.48)" fill="#fff">
          <path d="M 44.84299087524414 38.78236389160156 C 42.37891006469727 38.78236389160156 40.10765075683594 37.44231414794922 38.9155387878418 35.28516387939453 C 38.2029914855957 33.97881698608398 38.03501129150391 32.48909378051758 38.44282150268555 31.09090614318848 C 38.85848999023438 29.66574478149414 39.80268096923828 28.49072456359863 41.10144805908203 27.78230476379395 C 41.76781845092773 27.42210578918457 42.52070999145508 27.23161506652832 43.27840042114258 27.23161506652832 C 44.93854141235352 27.23161506652832 46.44931793212891 28.11864471435547 47.22116088867188 29.54655456542969 C 47.66450119018555 30.3778247833252 47.76546859741211 31.3515453338623 47.51287078857422 32.36194610595703 C 47.27711868286133 33.30491638183594 46.63761901855469 34.11469650268555 45.75833129882812 34.58364486694336 C 45.28926086425781 34.81814575195312 44.79410934448242 34.93765640258789 44.28899002075195 34.93765640258789 C 43.99869918823242 34.93765640258789 43.70864105224609 34.89683532714844 43.4268684387207 34.81633377075195 C 42.67679977416992 34.58552551269531 42.03482818603516 34.06753540039062 41.62113952636719 33.35835647583008 C 40.93050003051758 32.14973449707031 41.37252044677734 30.59195518493652 42.60691070556641 29.88657569885254 C 42.91529083251953 29.71526527404785 43.26697158813477 29.62440490722656 43.62289047241211 29.62440490722656 C 44.41796875 29.62440490722656 45.15161895751953 30.0559253692627 45.53752136230469 30.75056457519531 C 45.78192901611328 31.15800476074219 45.84375 31.64024543762207 45.71326065063477 32.11133575439453 C 45.58279037475586 32.5823860168457 45.27037048339844 32.97926712036133 44.8560905456543 33.2002067565918 L 44.8538703918457 33.20139694213867 L 44.85169982910156 33.20269393920898 C 44.77368927001953 33.24949645996094 44.69012069702148 33.27322387695312 44.60330963134766 33.27322387695312 C 44.42145919799805 33.27322387695312 44.25080108642578 33.16973495483398 44.14680099487305 32.99639511108398 C 44.00120162963867 32.75373077392578 44.08866882324219 32.45207214355469 44.35008239746094 32.29331588745117 C 44.55903244018555 32.18758392333984 44.70541381835938 32.00556564331055 44.75202941894531 31.79335594177246 C 44.79450988769531 31.59992408752441 44.74962615966797 31.406494140625 44.62562942504883 31.24771690368652 C 44.41314697265625 30.87114715576172 44.02384185791016 30.63756561279297 43.60765838623047 30.63756561279297 C 43.40755844116211 30.63756561279297 43.21321868896484 30.69292449951172 43.04565811157227 30.79764556884766 C 42.33824157714844 31.24781608581543 42.09012985229492 32.15664672851562 42.46786117553711 32.91210556030273 L 42.46997833251953 32.91635513305664 L 42.47249984741211 32.92038345336914 C 42.80234909057617 33.44814682006836 43.25109100341797 33.8055534362793 43.73604965209961 33.92679595947266 C 43.92535018920898 33.96890640258789 44.10879135131836 33.98994445800781 44.28382873535156 33.98993682861328 C 44.63552093505859 33.98992538452148 44.97077941894531 33.90777587890625 45.30876922607422 33.73877334594727 L 45.31221008300781 33.73706436157227 L 45.31549835205078 33.73508453369141 C 45.98278045654297 33.33472442626953 46.44736099243164 32.75821685791016 46.6236686706543 32.11175537109375 C 46.81953811645508 31.3935546875 46.72792816162109 30.6417350769043 46.37234115600586 30.0490550994873 C 45.75897979736328 28.94488525390625 44.57553863525391 28.25717544555664 43.28553009033203 28.25717544555664 C 42.69654083251953 28.25717544555664 42.11594009399414 28.40677452087402 41.60649871826172 28.68979454040527 C 40.49068832397461 29.34610557556152 39.74681091308594 30.28228569030762 39.45310974121094 31.39834594726562 C 39.10364151000977 32.50463485717773 39.23427963256836 33.72819519042969 39.82233047485352 34.83897399902344 C 40.82368087768555 36.68145370483398 42.75960922241211 37.82542419433594 44.87514877319336 37.82541656494141 C 45.84782791137695 37.82541656494141 46.81027984619141 37.57634353637695 47.65843963623047 37.10514450073242 C 49.38541793823242 36.11829376220703 50.58703994750977 34.60035705566406 51.13444137573242 32.71482467651367 C 51.69474029541016 30.84719467163086 51.47224044799805 28.82357597351074 50.52373886108398 27.16370582580566 C 49.95330047607422 26.08274459838867 49.17551803588867 25.14376449584961 48.21361923217773 24.37579536437988 C 47.26192092895508 23.61597442626953 46.177490234375 23.06095504760742 44.99044036865234 22.72614479064941 C 44.13232803344727 22.48410606384277 43.25617980957031 22.36138534545898 42.38631057739258 22.36138534545898 C 40.81435012817383 22.36138534545898 39.31750869750977 22.75016593933105 37.93735885620117 23.51691436767578 C 37.85646820068359 23.56538581848145 37.77289962768555 23.58911514282227 37.68608856201172 23.58911514282227 C 37.50424957275391 23.58911514282227 37.33359146118164 23.48562431335449 37.22957992553711 23.31228446960449 C 37.15824890136719 23.19340515136719 37.14046096801758 23.05633544921875 37.17945861816406 22.92630577087402 C 37.21841049194336 22.79649543762207 37.30947113037109 22.68322563171387 37.43587875366211 22.60738563537598 C 38.92757034301758 21.74968528747559 40.62900161743164 21.29583549499512 42.35464859008789 21.29583549499512 C 43.3243408203125 21.29583549499512 44.29367065429688 21.43695449829102 45.23571014404297 21.71528434753418 C 47.81560897827148 22.41892433166504 50.05141067504883 24.19907569885254 51.37184906005859 26.59985542297363 C 52.43143081665039 28.54242515563965 52.68471908569336 30.80160522460938 52.08491134643555 32.9609260559082 C 51.48960876464844 35.10400390625 50.07558822631836 36.87670516967773 48.10334014892578 37.95247650146484 C 47.07820129394531 38.49519348144531 45.95040893554688 38.78236389160156 44.84299087524414 38.78236389160156 Z" stroke="none"/>
          <path d="M 44.84299087524414 38.68236541748047 C 45.93415832519531 38.68236541748047 47.04576873779297 38.39920425415039 48.05545806884766 37.86468505859375 C 50.00376129150391 36.80198669433594 51.40055847167969 35.05095672607422 51.98855972290039 32.93415451049805 C 52.58137130737305 30.80002593994141 52.33111953735352 28.56735610961914 51.28422927856445 26.64804458618164 C 49.97676849365234 24.27086448669434 47.76330947875977 22.50831604003906 45.20737075805664 21.81118583679199 C 44.27455139160156 21.53558540344238 43.31475067138672 21.39583587646484 42.35464859008789 21.39583587646484 C 40.64648056030273 21.39583587646484 38.9622802734375 21.84508514404297 37.48733139038086 22.69313430786133 C 37.38232803344727 22.75613594055176 37.30701065063477 22.84914588928223 37.27524948120117 22.95504570007324 C 37.25344085693359 23.02772521972656 37.24269104003906 23.13977432250977 37.31533050537109 23.26083564758301 C 37.40110015869141 23.40377616882324 37.53969955444336 23.48911476135254 37.68608856201172 23.48911476135254 C 37.75452041625977 23.48911476135254 37.82077789306641 23.47018432617188 37.88301849365234 23.43283462524414 L 37.88587951660156 23.43112564086914 L 37.88879013061523 23.42950439453125 C 39.28396987915039 22.65439605712891 40.79716110229492 22.26138496398926 42.38631057739258 22.26138496398926 C 43.26535034179688 22.26138496398926 44.15063858032227 22.3853645324707 45.017578125 22.62989616394043 C 46.2175407409668 22.96834564208984 47.3138313293457 23.52946472167969 48.27602005004883 24.29765510559082 C 49.24784851074219 25.07354354858398 50.03385543823242 26.0221118927002 50.61222839355469 27.11698913574219 C 51.57291030883789 28.80002021789551 51.79804611206055 30.85085487365723 51.2304801940918 32.74270629882812 C 50.67568969726562 34.65366363525391 49.4580192565918 36.19198608398438 47.70700836181641 37.19255447387695 C 46.84399795532227 37.6719970703125 45.86476135253906 37.9254150390625 44.87514877319336 37.9254150390625 C 42.72291946411133 37.9254264831543 40.75333023071289 36.76143646240234 39.73395156860352 34.88576507568359 C 39.13407516479492 33.75264739990234 39.00048446655273 32.50368881225586 39.35763549804688 31.36821937561035 C 39.65902328491211 30.22811889648438 40.41829299926758 29.27268409729004 41.55792999267578 28.60238456726074 C 42.08218002319336 28.31112480163574 42.67958068847656 28.15717506408691 43.28553009033203 28.15717506408691 C 44.6107063293457 28.15717506408691 45.82667541503906 28.86336326599121 46.45978546142578 30.00043487548828 C 46.82793426513672 30.61592483520508 46.9228401184082 31.39484024047852 46.72013854980469 32.13806533813477 C 46.53702163696289 32.80952453613281 46.05644989013672 33.40714645385742 45.36695098876953 33.82083511352539 L 45.36035919189453 33.82478713989258 L 45.35348892211914 33.82822418212891 C 45.00128936767578 34.00431442260742 44.65140151977539 34.08992385864258 44.28382873535156 34.08993530273438 C 44.10150146484375 34.08993530273438 43.91075897216797 34.06809616088867 43.7169189453125 34.0250244140625 L 43.71435165405273 34.02445602416992 L 43.71178817749023 34.0238151550293 C 43.20159149169922 33.89626693725586 42.73134994506836 33.52321624755859 42.38769912719727 32.97338485717773 L 42.38265991210938 32.96532440185547 L 42.37841033935547 32.95682525634766 C 41.97769927978516 32.15537643432617 42.24116897583008 31.1910457611084 42.99266815185547 30.71284484863281 C 43.17615127563477 30.59817504882812 43.38880920410156 30.53756523132324 43.60765838623047 30.53756523132324 C 44.05754852294922 30.53756523132324 44.47806930541992 30.78792381286621 44.70905303955078 31.19211769104004 C 44.84823608398438 31.37365531921387 44.89817810058594 31.5940990447998 44.84970092773438 31.81480598449707 C 44.79688262939453 32.05524826049805 44.63279342651367 32.26105880737305 44.39887237548828 32.38069915771484 C 44.18836975097656 32.51049423217773 44.11675262451172 32.75195693969727 44.23255157470703 32.9449462890625 C 44.31832122802734 33.08788681030273 44.4569206237793 33.17322540283203 44.60330963134766 33.17322540283203 C 44.6717414855957 33.17322540283203 44.73801040649414 33.1542854309082 44.80025863647461 33.116943359375 L 44.80458068847656 33.11434555053711 L 44.80902862548828 33.11197662353516 C 45.19924926757812 32.90385437011719 45.49369812011719 32.52940368652344 45.61688995361328 32.08464431762695 C 45.739990234375 31.64021492004395 45.68193817138672 31.18573570251465 45.45344161987305 30.80490493774414 L 45.45172882080078 30.80204582214355 L 45.45011138916016 30.79913520812988 C 45.08182144165039 30.13621520996094 44.38166809082031 29.72440528869629 43.62289047241211 29.72440528869629 C 43.28392028808594 29.72440528869629 42.94902801513672 29.81091499328613 42.65652847290039 29.9734058380127 C 41.47000885009766 30.65142440795898 41.04468154907227 32.14799499511719 41.70751953125 33.30796432495117 C 42.1085205078125 33.99540710449219 42.73027038574219 34.49734497070312 43.45433807373047 34.72017669677734 C 43.72718048095703 34.79813385009766 44.00798797607422 34.83765411376953 44.28899002075195 34.83765411376953 C 44.77762222290039 34.83765411376953 45.25693893432617 34.72207641601562 45.7136344909668 34.4941520690918 C 46.56681442260742 34.03829193115234 47.18716049194336 33.25244522094727 47.41585159301758 32.33768463134766 C 47.66233825683594 31.35172462463379 47.56441879272461 30.40266609191895 47.1331901550293 29.5941047668457 C 46.37884140014648 28.19855499267578 44.90177154541016 27.33161544799805 43.27840042114258 27.33161544799805 C 42.53725814819336 27.33161544799805 41.80080795288086 27.5179443359375 41.14933013916016 27.87009429931641 C 39.87408828735352 28.5656852722168 38.94699096679688 29.71947479248047 38.538818359375 31.11890602111816 C 38.13846969604492 32.49153518676758 38.30353164672852 33.95430374145508 39.00307083129883 35.23679351806641 C 40.17757034301758 37.36210632324219 42.41529846191406 38.68236541748047 44.84299087524414 38.68236541748047 M 44.84299087524414 38.88236618041992 C 42.4370002746582 38.88236618041992 40.09115982055664 37.61922454833984 38.82801818847656 35.33353424072266 C 38.10622024536133 34.01023483276367 37.9257698059082 32.50649642944336 38.34682083129883 31.06290435791016 C 38.76786804199219 29.61930465698242 39.73027038574219 28.41631507873535 41.05355834960938 27.69451522827148 C 41.75841522216797 27.31351089477539 42.52357864379883 27.13161277770996 43.27840042114258 27.13161277770996 C 44.90688705444336 27.13161277770996 46.48714065551758 27.97831916809082 47.30913162231445 29.49900436401367 C 47.79032897949219 30.40125465393066 47.85047912597656 31.42379570007324 47.60987854003906 32.38619613647461 C 47.36927795410156 33.34859466552734 46.7076416015625 34.1906852722168 45.80538940429688 34.6718864440918 C 45.33928680419922 34.90493774414062 44.82302474975586 35.03765869140625 44.28898620605469 35.03765869140625 C 43.99602508544922 35.03765869140625 43.69771194458008 34.99771881103516 43.39939880371094 34.9124870300293 C 42.61745071411133 34.6718864440918 41.955810546875 34.13053512573242 41.53475952148438 33.40874481201172 C 40.81296157836914 32.14559555053711 41.29415893554688 30.52155494689941 42.55730056762695 29.79975509643555 C 42.89425659179688 29.61255836486816 43.26030731201172 29.52440643310547 43.62288665771484 29.52440643310547 C 44.42533874511719 29.52440643310547 45.21064376831055 29.95626068115234 45.62493896484375 30.70200538635254 C 46.16629028320312 31.60424613952637 45.80538940429688 32.80724334716797 44.90314865112305 33.28844451904297 C 44.80673980712891 33.34628677368164 44.70415496826172 33.37322616577148 44.60331344604492 33.37322616577148 C 44.38956451416016 33.37322235107422 44.18365478515625 33.25218963623047 44.06105041503906 33.04784393310547 C 43.88059997558594 32.74709701538086 44.00090026855469 32.38619613647461 44.30165100097656 32.20574569702148 C 44.66254806518555 32.02529525756836 44.78284072875977 31.60424613952637 44.54225158691406 31.30349540710449 C 44.3394660949707 30.9384880065918 43.9726448059082 30.73756790161133 43.60766220092773 30.73756790161133 C 43.43133163452148 30.73756790161133 43.25540542602539 30.78448104858398 43.09865951538086 30.88244438171387 C 42.4370002746582 31.30349540710449 42.1964111328125 32.14559555053711 42.55730056762695 32.86738586425781 C 42.85805892944336 33.34859466552734 43.27909851074219 33.7094841003418 43.76029968261719 33.82978439331055 C 43.94077301025391 33.86988830566406 44.11449432373047 33.88993835449219 44.2838249206543 33.88993453979492 C 44.62242126464844 33.88992691040039 44.94326400756836 33.80972671508789 45.2640495300293 33.64933395385742 C 45.86553955078125 33.28844451904297 46.34674072265625 32.74709701538086 46.52719116210938 32.08544540405273 C 46.7076416015625 31.42379570007324 46.64748001098633 30.70200538635254 46.28659057617188 30.10050582885742 C 45.66937637329102 28.98952102661133 44.48950958251953 28.3571720123291 43.28553009033203 28.3571720123291 C 42.72951889038086 28.3571720123291 42.16812133789062 28.49217796325684 41.65505981445312 28.7772159576416 C 40.63251113891602 29.37870597839355 39.85055923461914 30.28095436096191 39.54981994628906 31.42379570007324 C 39.18891906738281 32.56664657592773 39.36936950683594 33.76963424682617 39.91070938110352 34.79218673706055 C 40.93554306030273 36.67787170410156 42.88228225708008 37.72542572021484 44.87515258789062 37.72541809082031 C 45.80644226074219 37.72541046142578 46.74783325195312 37.49663925170898 47.60987854003906 37.01772689819336 C 49.29407119750977 36.05532455444336 50.4970703125 34.55158615112305 51.03841018676758 32.68694686889648 C 51.57976150512695 30.88244438171387 51.39931106567383 28.89750480651855 50.43692016601562 27.21331596374512 C 49.2940788269043 25.04792594909668 47.30913162231445 23.48403549194336 44.96329116821289 22.82238578796387 C 44.11338043212891 22.58266639709473 43.24777603149414 22.46138954162598 42.38630676269531 22.46138954162598 C 40.87003326416016 22.46138954162598 39.36677932739258 22.83718872070312 37.98591995239258 23.60433578491211 C 37.8895149230957 23.66217994689941 37.78693389892578 23.68911933898926 37.68609237670898 23.68911933898926 C 37.47235107421875 23.68911933898926 37.26643371582031 23.56807708740234 37.14382934570312 23.36373519897461 C 36.96337890625 23.06298446655273 37.08367919921875 22.70208549499512 37.38442993164062 22.52163505554199 C 38.92165374755859 21.63773345947266 40.63054656982422 21.19583511352539 42.35464477539062 21.19583511352539 C 43.32902145385742 21.19583511352539 44.30839920043945 21.33703994750977 45.2640380859375 21.619384765625 C 47.91062927246094 22.34118461608887 50.13616943359375 24.14567565917969 51.45946884155273 26.55166435241699 C 52.54216003417969 28.53660583496094 52.78276062011719 30.82229614257812 52.18125915527344 32.98768615722656 C 51.57976150512695 35.15308380126953 50.13616943359375 36.95757675170898 48.15122985839844 38.04026412963867 C 47.12868118286133 38.58161544799805 45.98583984375 38.88236618041992 44.84299087524414 38.88236618041992 Z" stroke="none" fill="#fff"/>
        </g>
      </g>
    </g>
  </g>
</svg>
