<svg xmlns="http://www.w3.org/2000/svg" width="39.212" height="38.569" viewBox="0 0 39.212 38.569">
  <g id="noun_quoting_310979" transform="translate(-0.8 -1)">
    <g id="Group_38" data-name="Group 38" transform="translate(0.8 1)">
      <g id="Group_35" data-name="Group 35">
        <path id="Path_51" data-name="Path 51" d="M.8,39.569,4.4,29.284a19.511,19.511,0,0,1-2.443-9.257A19.027,19.027,0,1,1,20.984,39.055a19.208,19.208,0,0,1-9.514-2.571Zm10.928-5.143.386.257a16.787,16.787,0,0,0,8.871,2.443,17.1,17.1,0,1,0-17.1-17.1,15.612,15.612,0,0,0,2.443,8.614l.257.386-2.7,7.714Z" transform="translate(-0.8 -1)" fill="#fff"/>
      </g>
      <g id="Group_36" data-name="Group 36" transform="translate(22.241 14.656)">
        <path id="Path_52" data-name="Path 52" d="M18.743,21.657l-.643-1.8c1.029-.386,1.543-3.214,1.671-5.528H18.229V12.4H21.7v.9C21.7,14.586,21.7,20.628,18.743,21.657Z" transform="translate(-18.1 -12.4)" fill="#fff"/>
      </g>
      <g id="Group_37" data-name="Group 37" transform="translate(14.656 14.656)">
        <path id="Path_53" data-name="Path 53" d="M12.843,21.657l-.643-1.8c1.029-.386,1.543-3.214,1.671-5.528H12.329V12.4H15.8v.9C15.8,14.586,15.8,20.628,12.843,21.657Z" transform="translate(-12.2 -12.4)" fill="#fff"/>
      </g>
    </g>
  </g>
</svg>
