<svg xmlns="http://www.w3.org/2000/svg" width="45.837" height="46.645" viewBox="0 0 45.837 46.645">
  <g id="noun_Chatbot_933478" transform="translate(-3.158 -5.282)">
    <g id="Group_34" data-name="Group 34" transform="translate(3.158 5.282)">
      <g id="Group_33" data-name="Group 33">
        <path id="Path_47" data-name="Path 47" d="M48.663,5.282H13.092A4.467,4.467,0,0,0,8.63,9.744V24.109a4.467,4.467,0,0,0,4.462,4.462h25.4L34.4,35.988l2.5-1.512a85.086,85.086,0,0,0,8.6-5.9h3.156a4.467,4.467,0,0,0,4.462-4.462V9.744A4.466,4.466,0,0,0,48.663,5.282Zm2.9,18.828a2.9,2.9,0,0,1-2.9,2.9H44.915l-.223.2a57.3,57.3,0,0,1-6.051,4.334l2.5-4.531H13.092a2.9,2.9,0,0,1-2.9-2.9V9.744a2.9,2.9,0,0,1,2.9-2.9h35.57a2.9,2.9,0,0,1,2.9,2.9Z" transform="translate(-7.288 -5.282)" fill="#fff"/>
        <circle id="Ellipse_23" data-name="Ellipse 23" cx="1.782" cy="1.782" r="1.782" transform="translate(28.511 9.609)" fill="#fff"/>
        <circle id="Ellipse_24" data-name="Ellipse 24" cx="1.782" cy="1.782" r="1.782" transform="translate(21.574 9.609)" fill="#fff"/>
        <circle id="Ellipse_25" data-name="Ellipse 25" cx="1.782" cy="1.782" r="1.782" transform="translate(14.637 9.609)" fill="#fff"/>
        <path id="Path_48" data-name="Path 48" d="M20.52,56.869H17.587a2.35,2.35,0,0,0-2.347,2.347v1.173H13.946a5.344,5.344,0,0,0-5.18,4.152H7.812A1.758,1.758,0,0,0,6.056,66.3v5.045A1.758,1.758,0,0,0,7.812,73.1h.823v3.51H29.473V73.1H30.3a1.758,1.758,0,0,0,1.756-1.756V66.3A1.758,1.758,0,0,0,30.3,64.541h-.954a5.344,5.344,0,0,0-5.18-4.152H22.868V59.216A2.351,2.351,0,0,0,20.52,56.869Zm3.641,5.085a3.765,3.765,0,0,1,3.731,3.434l.059.718H30.3a.194.194,0,0,1,.191.191v5.045a.194.194,0,0,1-.191.191H27.908v3.51H10.2v-3.51H7.812a.194.194,0,0,1-.191-.191V66.3a.194.194,0,0,1,.191-.191h2.345l.059-.718a3.765,3.765,0,0,1,3.731-3.434h2.858V59.216a.783.783,0,0,1,.782-.782h2.933a.783.783,0,0,1,.782.782v2.738Z" transform="translate(-6.056 -29.964)" fill="#fff"/>
        <path id="Path_49" data-name="Path 49" d="M19.953,71.239a3.327,3.327,0,1,0,3.221,3.325A3.278,3.278,0,0,0,19.953,71.239Zm0,5.086a1.763,1.763,0,1,1,1.656-1.76A1.713,1.713,0,0,1,19.953,76.325Z" transform="translate(-11.164 -36.839)" fill="#fff"/>
        <path id="Path_50" data-name="Path 50" d="M32.87,74.565a3.223,3.223,0,1,0,3.221-3.325A3.278,3.278,0,0,0,32.87,74.565ZM36.091,72.8a1.763,1.763,0,1,1-1.656,1.76A1.713,1.713,0,0,1,36.091,72.8Z" transform="translate(-18.885 -36.84)" fill="#fff"/>
        <rect id="Rectangle_52" data-name="Rectangle 52" width="2.743" height="1.565" transform="translate(11.626 41.392)" fill="#fff"/>
      </g>
    </g>
  </g>
</svg>
