<svg xmlns="http://www.w3.org/2000/svg" width="21.826" height="21.826" viewBox="0 0 21.826 21.826">
  <path id="Path_54" data-name="Path 54" d="M25.711,14.637,15.188,4.114a.389.389,0,0,0-.551,0L4.114,14.637a.39.39,0,0,0,.276.665H5.559V25.436a.39.39,0,0,0,.39.39h6.236a.39.39,0,0,0,.39-.39V18.42a.39.39,0,0,1,.39-.39h3.9a.39.39,0,0,1,.39.39v7.015a.39.39,0,0,0,.39.39h6.236a.39.39,0,0,0,.39-.39V15.3h1.169a.39.39,0,0,0,.276-.665Zm-1.835-.114a.39.39,0,0,0-.39.39V25.046H18.031V18.42a1.171,1.171,0,0,0-1.169-1.169h-3.9a1.171,1.171,0,0,0-1.169,1.169v6.626H6.338V14.913a.39.39,0,0,0-.39-.39H5.33l9.582-9.582,9.582,9.582Z" transform="translate(-4 -4)" fill="#f50097"/>
</svg>
