<svg xmlns="http://www.w3.org/2000/svg" width="18.579" height="19.622" viewBox="0 0 18.579 19.622">
  <g id="Group_67" data-name="Group 67" transform="translate(-1016.015 -1574.693)">
    <path id="Path_93" data-name="Path 93" d="M31.8,159.889h-.841v-12.2a1.031,1.031,0,0,0-1.03-1.03H28.047a1.031,1.031,0,0,0-1.03,1.03v12.2H24.883v-6.675a1.031,1.031,0,0,0-1.03-1.03H21.974a1.031,1.031,0,0,0-1.03,1.03v6.675H18.809v-3.457a1.031,1.031,0,0,0-1.03-1.03H15.9a1.031,1.031,0,0,0-1.03,1.03v3.457h-.886a.383.383,0,1,0,0,.766H31.8a.383.383,0,1,0,0-.766Zm-13.754,0H15.637v-3.457a.264.264,0,0,1,.264-.264h1.879a.264.264,0,0,1,.264.264Zm6.074,0H21.71v-6.675a.264.264,0,0,1,.264-.264h1.879a.264.264,0,0,1,.264.264Zm6.074,0H27.784v-12.2a.264.264,0,0,1,.264-.264h1.879a.264.264,0,0,1,.264.264Z" transform="translate(1002.414 1433.659)" fill="#f50097"/>
    <path id="Path_94" data-name="Path 94" d="M113.415.4a.382.382,0,0,0-.4-.4h-2.337a.383.383,0,1,0,0,.766h1.432l-3.789,3.789L106.89,3.126a.383.383,0,0,0-.542,0l-6.889,6.889a.383.383,0,0,0,.542.542l6.618-6.618,1.429,1.429a.383.383,0,0,0,.542,0l4.06-4.06V2.6a.383.383,0,1,0,.766,0V.422C113.415.415,113.415.409,113.415.4Z" transform="translate(919.955 1574.693)" fill="#f50097"/>
    <ellipse id="Ellipse_31" data-name="Ellipse 31" cx="0.383" cy="0.383" rx="0.383" ry="0.383" transform="translate(1018.01 1585.933)" fill="#f50097"/>
  </g>
</svg>
